<svg width="1440" height="600" viewBox="0 0 1440 600" fill="none" xmlns="http://www.w3.org/2000/svg">
<mask id="mask0_523_1668" style="mask-type:alpha" maskUnits="userSpaceOnUse" x="0" y="0" width="1440" height="600">
<rect width="1440" height="600" fill="#32AA9D"/>
</mask>
<g mask="url(#mask0_523_1668)">
<g opacity="0.5">
<path d="M964.843 -22.6707C964.843 -22.6707 918.293 175.469 1113.84 235.329C1254.15 278.279 1330.66 281.939 1369.23 371.029C1407.8 460.119 1416.06 512.029 1457.82 517.319" stroke="#BFBFBF" stroke-miterlimit="10"/>
<path d="M1457.8 283.28C1457.8 283.28 1327.98 335.58 1260.14 197.55C1214.35 104.38 1058.89 148.07 1009.4 87.6799C970.163 39.7899 1054.89 -22.6702 1054.89 -22.6702" stroke="#BFBFBF" stroke-miterlimit="10"/>
<path d="M1492.91 242.34C1492.91 242.34 1392.48 240.75 1326.64 134.34C1260.8 27.9298 1147.07 69.5798 1129.77 8.33984C1112.47 -52.9002 1186.91 -114 1186.91 -114" stroke="#BFBFBF" stroke-miterlimit="10"/>
<path d="M1457 167.49C1457 167.49 1374.53 175.49 1363.89 94.3299C1353.25 13.1699 1443.4 -55.9801 1443.4 -55.9801" stroke="#BFBFBF" stroke-miterlimit="10"/>
</g>
<g opacity="0.5">
<path d="M-12.3505 428.883C-12.3505 428.883 166.958 471.008 221.129 294.043C259.998 167.068 263.31 97.8297 343.933 62.9254C424.556 28.0211 471.532 20.5461 476.319 -17.2451" stroke="#BFBFBF" stroke-miterlimit="10"/>
<path d="M264.523 -17.2274C264.523 -17.2274 311.852 100.255 186.941 161.647C102.625 203.085 142.163 343.771 87.5127 388.557C44.1741 424.068 -12.3498 347.39 -12.3498 347.39" stroke="#BFBFBF" stroke-miterlimit="10"/>
<path d="M227.474 -48.9999C227.474 -48.9999 226.035 41.8853 129.738 101.468C33.441 161.051 71.1326 263.972 15.7128 279.628C-39.707 295.283 -95 227.918 -95 227.918" stroke="#BFBFBF" stroke-miterlimit="10"/>
<path d="M159.737 -16.5027C159.737 -16.5027 166.977 58.1294 93.5302 67.7582C20.0836 77.387 -42.4945 -4.19526 -42.4945 -4.19526" stroke="#BFBFBF" stroke-miterlimit="10"/>
</g>
</g>
</svg>
