<svg width="1440" height="545" viewBox="0 0 1440 545" fill="none" xmlns="http://www.w3.org/2000/svg">
<mask id="mask0_544_242" style="mask-type:alpha" maskUnits="userSpaceOnUse" x="0" y="0" width="1440" height="545">
<rect width="1440" height="545" transform="matrix(1 0 0 -1 0 545)" fill="#32AA9D"/>
</mask>
<g mask="url(#mask0_544_242)">
<g opacity="0.5">
<path d="M964.843 567.671C964.843 567.671 918.293 369.531 1113.84 309.671C1254.15 266.721 1330.66 263.061 1369.23 173.971C1407.8 84.8807 1416.06 32.9707 1457.82 27.6807" stroke="#BFBFBF" stroke-miterlimit="10"/>
<path d="M1457.8 261.72C1457.8 261.72 1327.98 209.42 1260.14 347.45C1214.35 440.62 1058.89 396.93 1009.4 457.32C970.163 505.21 1054.89 567.67 1054.89 567.67" stroke="#BFBFBF" stroke-miterlimit="10"/>
<path d="M1492.91 302.66C1492.91 302.66 1392.48 304.25 1326.64 410.66C1260.8 517.07 1147.07 475.42 1129.77 536.66C1112.47 597.9 1186.91 659 1186.91 659" stroke="#BFBFBF" stroke-miterlimit="10"/>
<path d="M1457 377.51C1457 377.51 1374.53 369.51 1363.89 450.67C1353.25 531.83 1443.4 600.98 1443.4 600.98" stroke="#BFBFBF" stroke-miterlimit="10"/>
</g>
<g opacity="0.5">
<path d="M-12.3505 116.117C-12.3505 116.117 166.958 73.9915 221.129 250.957C259.998 377.932 263.31 447.17 343.933 482.075C424.556 516.979 471.532 524.454 476.319 562.245" stroke="#BFBFBF" stroke-miterlimit="10"/>
<path d="M264.523 562.227C264.523 562.227 311.852 444.745 186.941 383.353C102.625 341.915 142.163 201.229 87.5127 156.443C44.1741 120.932 -12.3498 197.61 -12.3498 197.61" stroke="#BFBFBF" stroke-miterlimit="10"/>
<path d="M227.474 594C227.474 594 226.035 503.115 129.738 443.532C33.441 383.949 71.1326 281.028 15.7128 265.372C-39.707 249.717 -95 317.082 -95 317.082" stroke="#BFBFBF" stroke-miterlimit="10"/>
<path d="M159.737 561.503C159.737 561.503 166.977 486.871 93.5302 477.242C20.0836 467.613 -42.4945 549.195 -42.4945 549.195" stroke="#BFBFBF" stroke-miterlimit="10"/>
</g>
</g>
</svg>
