<svg width="1440" height="272" viewBox="0 0 1440 272" fill="none" xmlns="http://www.w3.org/2000/svg">
<mask id="mask0_485_14" style="mask-type:alpha" maskUnits="userSpaceOnUse" x="0" y="0" width="1440" height="272">
<rect width="1440" height="272" fill="#212121"/>
</mask>
<g mask="url(#mask0_485_14)">
<g opacity="0.5">
<path d="M-50.0078 -82C-50.0078 -82 5.03914 15.1326 141.033 -2.13448C293.516 -21.5004 359.057 90.6922 321.277 167.323C283.498 243.954 115.717 260.139 139.162 384.265C162.606 508.391 -41.374 564.508 -41.374 564.508" stroke="#BFBFBF" stroke-miterlimit="10"/>
<path d="M-91 30.2471C-91 30.2471 25.239 72.3436 140.883 57.2296C256.527 42.1155 270.061 110.048 256.537 137.106C228.484 193.224 78.4572 204.021 68.7418 294.684C61.439 362.844 115.642 463.276 -41.2328 515.207" stroke="#BFBFBF" stroke-miterlimit="10"/>
<path d="M0.797563 137.47C0.797563 137.47 119.601 122.323 98.3953 189.282C74.0851 266.031 16.9826 264.83 70.9475 361.974C90.1404 396.519 95.777 535.737 -10 507.684" stroke="#BFBFBF" stroke-miterlimit="10"/>
</g>
<g opacity="0.5">
<path d="M743.647 343.62C743.647 343.62 754.614 140.381 959.105 137.846C1105.83 136.027 1180.29 154.001 1242.33 79.3275C1304.36 4.65426 1326.87 -42.8472 1368.43 -36.1969" stroke="#BFBFBF" stroke-miterlimit="10"/>
<path d="M1475.39 63.2737C1475.39 63.2737 1352.57 -3.84086 1269.06 125.314C1212.69 212.494 1063.41 150.933 1007.2 205.125C962.629 248.101 1039.48 320.036 1039.48 320.036" stroke="#BFBFBF" stroke-miterlimit="10"/>
<path d="M1094 393.029C1094 393.029 1113.26 294.449 1229.6 248.382C1345.94 202.316 1324.98 83.0273 1388.31 76.785C1451.64 70.5426 1498.67 154.581 1498.67 154.581" stroke="#BFBFBF" stroke-miterlimit="10"/>
<path d="M1488.06 258.588C1488.06 258.588 1459.14 180.942 1381.51 206.916C1303.89 232.891 1281.2 344.218 1281.2 344.218" stroke="#BFBFBF" stroke-miterlimit="10"/>
</g>
</g>
</svg>
