<svg width="48" height="48" viewBox="0 0 48 48" fill="none" xmlns="http://www.w3.org/2000/svg">
<circle cx="24" cy="24" r="24" fill="white"/>
<path d="M24.7556 26.2373V34.1963H21.1766V19.2274H24.7556V21.1271V23.1049L25.829 21.4436C26.1617 20.9285 26.5509 20.387 27.1512 19.9659C27.741 19.5521 28.575 19.2274 29.8361 19.2274C31.4105 19.2274 32.7281 19.7195 33.6557 20.7073C34.5866 21.6986 35.1954 23.2644 35.1954 25.5482V25.5483L35.1963 34.1963H31.6172V26.1433C31.6172 24.9959 31.2972 23.9738 30.6637 23.2283C30.0218 22.4728 29.0977 22.05 28.0042 22.05C26.2459 22.05 25.315 23.2597 24.8944 24.3026C24.8286 24.4636 24.7991 24.6492 24.7824 24.8013C24.7643 24.9657 24.7561 25.1453 24.7525 25.3181C24.7477 25.5433 24.7509 25.7917 24.7534 25.9915C24.7546 26.0871 24.7556 26.1717 24.7556 26.2373ZM13.5833 19.2274H17.1624V34.1963H13.5833V19.2274ZM15.3586 16.1624H15.3321C14.2675 16.1624 13.5833 15.3984 13.5833 14.3719C13.5833 13.8369 13.7692 13.395 14.069 13.0893C14.3667 12.7856 14.8089 12.5833 15.3862 12.5833C15.9626 12.5833 16.389 12.7842 16.6758 13.0841C16.966 13.3876 17.1504 13.8318 17.1624 14.3777C17.1611 14.8981 16.9808 15.3397 16.6837 15.6483C16.389 15.9543 15.9479 16.1624 15.3586 16.1624Z" fill="#212121" stroke="#212121" stroke-width="1.16667"/>
</svg>
