<svg width="54" height="54" viewBox="0 0 54 54" fill="none" xmlns="http://www.w3.org/2000/svg">
<circle cx="27" cy="27" r="27" fill="#212121"/>
<path d="M16.3361 37C15.074 37 13.9407 36.8434 12.9362 36.5303C11.9317 36.2433 11.0045 35.878 10.1545 35.4344L10.1932 30.7769H10.5795L11.8931 33.1252C12.4597 34.1689 13.0779 34.9517 13.7476 35.4736C14.443 35.9693 15.3187 36.2172 16.3747 36.2172C17.611 36.2172 18.6027 35.9433 19.3496 35.3953C20.1223 34.8213 20.5086 34.0646 20.5086 33.1252C20.5086 32.2642 20.2382 31.5597 19.6973 31.0117C19.1564 30.4638 18.1519 29.968 16.6838 29.5245L15.0611 29.0157C13.49 28.546 12.2537 27.8154 11.3522 26.8239C10.4507 25.8324 10 24.619 10 23.184C10 21.4618 10.6697 20.0007 12.009 18.8004C13.3483 17.6001 15.2672 17 17.7656 17C18.7701 17 19.7102 17.1174 20.5859 17.3523C21.4874 17.561 22.3502 17.8871 23.1744 18.3307L22.9426 22.5577H22.5563L21.2041 20.1311C20.7147 19.2701 20.2253 18.6699 19.7359 18.3307C19.2723 17.9654 18.564 17.7828 17.611 17.7828C16.7353 17.7828 15.9111 18.0307 15.1384 18.5264C14.3657 19.0222 13.9794 19.7267 13.9794 20.6399C13.9794 21.5271 14.3013 22.2316 14.9452 22.7534C15.6149 23.2753 16.5936 23.758 17.8815 24.2016L19.62 24.7104C21.4745 25.2844 22.801 26.0802 23.5994 27.0978C24.3978 28.0894 24.7971 29.2896 24.7971 30.6986C24.7971 32.6034 24.0501 34.1298 22.5563 35.2779C21.0881 36.426 19.0148 37 16.3361 37Z" fill="white"/>
<path d="M31.8938 37C30.3999 37 29.1378 36.5695 28.1076 35.7084C27.1031 34.8474 26.6008 33.608 26.6008 31.9902C26.6008 30.7639 27.219 29.6419 28.4553 28.6243C29.6916 27.5806 31.6362 26.7978 34.2891 26.2759C34.7012 26.1977 35.1648 26.1194 35.68 26.0411C36.1951 25.9367 36.736 25.8324 37.3026 25.728V22.636C37.3026 20.8617 37.0837 19.6223 36.6458 18.9178C36.2337 18.1872 35.5769 17.8219 34.6755 17.8219C34.0573 17.8219 33.5679 18.0307 33.2074 18.4481C32.8468 18.8395 32.615 19.531 32.5119 20.5225L32.4347 20.953C32.3832 22.075 32.1127 22.8969 31.6233 23.4188C31.134 23.9406 30.5287 24.2016 29.8075 24.2016C29.1378 24.2016 28.5841 23.9928 28.1462 23.5753C27.7084 23.1579 27.4894 22.5969 27.4894 21.8924C27.4894 20.8226 27.85 19.9224 28.5712 19.1918C29.3181 18.4612 30.2969 17.9132 31.5074 17.5479C32.718 17.1826 34.0316 17 35.4482 17C37.7405 17 39.5048 17.574 40.7411 18.7221C42.0032 19.8441 42.6342 21.6836 42.6342 24.2407V32.8904C42.6342 34.0646 43.1751 34.6517 44.2569 34.6517H45.1068L45.4545 34.9648C44.9652 35.591 44.4243 36.0737 43.8319 36.4129C43.2652 36.7521 42.4539 36.9217 41.3979 36.9217C40.2646 36.9217 39.3631 36.6608 38.6935 36.1389C38.0496 35.591 37.6246 34.8735 37.4185 33.9863C36.6458 34.8213 35.8474 35.5388 35.0232 36.1389C34.2247 36.713 33.1816 37 31.8938 37ZM34.2505 34.6125C34.7656 34.6125 35.2421 34.4951 35.68 34.2603C36.1436 33.9993 36.6845 33.608 37.3026 33.0861V26.5108C37.0451 26.5629 36.7875 26.6151 36.5299 26.6673C36.2724 26.7195 35.9762 26.7717 35.6413 26.8239C34.4565 27.137 33.5036 27.6719 32.7824 28.4286C32.087 29.1592 31.7392 30.1507 31.7392 31.4031C31.7392 32.4729 31.9839 33.2818 32.4733 33.8297C32.9627 34.3516 33.5551 34.6125 34.2505 34.6125Z" fill="white"/>
</svg>
