<svg width="48" height="48" viewBox="0 0 48 48" fill="none" xmlns="http://www.w3.org/2000/svg">
<circle cx="24" cy="24" r="24" fill="white"/>
<path d="M36.5822 28.947C36.1595 29.6903 35.647 30.2484 34.9936 30.6548L34.9925 30.6554C34.0415 31.2492 32.9144 31.5558 31.5903 31.5558C30.7895 31.5558 29.9827 31.4079 29.1676 31.1048C28.5265 30.8001 27.8798 30.3485 27.3989 29.8977L27.3965 29.8955C26.9715 29.5007 26.659 28.9443 26.3075 28.1209L26.2948 28.0912L26.2796 28.0628C25.9931 27.5304 25.8221 26.6482 25.8221 25.8782C25.8221 25.5155 25.9003 24.0645 26.683 22.7288C27.4324 21.45 28.8663 20.2007 31.7716 20.2007C33.8228 20.2007 35.0737 20.9903 35.8423 21.838C36.6322 22.7092 36.9407 23.6766 37.0129 24.0112L36.5822 28.947ZM36.5822 28.947H35.0643C34.8781 29.2347 34.6091 29.5481 34.1314 29.8477L34.1289 29.8493C33.4786 30.2534 32.8093 30.4636 31.9517 30.4636C30.3609 30.4636 29.3304 29.7745 28.7265 28.8847C28.1513 28.0373 27.9963 27.0623 27.9963 26.4605V25.7462H28.7105H37.1742C37.1658 25.095 37.1339 24.5775 37.0131 24.0122L36.5822 28.947ZM10.7142 31.557V16.7154H17.8236C17.8302 16.7154 17.8371 16.7154 17.8442 16.7154C18.2928 16.7153 19.5012 16.715 20.5935 17.1606C21.1378 17.3827 21.6196 17.7028 21.9656 18.1597C22.3056 18.6085 22.5516 19.2376 22.5516 20.15C22.5516 21.0835 22.2393 21.6595 21.8891 22.0408C21.5206 22.4419 21.0779 22.6643 20.7415 22.8282L19.153 23.6021L20.8331 24.1494C21.2834 24.2961 21.8801 24.5651 22.3611 25.0792C22.8263 25.5766 23.2315 26.3539 23.2315 27.6203C23.2315 28.5883 22.9581 29.2825 22.5688 29.796C22.1724 30.3189 21.6239 30.6956 21.0195 30.9645C19.7955 31.5091 18.4693 31.5564 18.1634 31.557C18.1632 31.557 18.163 31.557 18.1628 31.557L10.7142 31.557ZM13.4864 18.1075H12.7722V18.8217V22.6405V23.3547H13.4864H17.2297C17.5731 23.3547 18.2591 23.2662 18.8858 22.901C19.5561 22.5104 20.1543 21.7964 20.1543 20.6486C20.1543 19.3889 19.2986 18.7354 18.5623 18.4343C17.8445 18.1407 17.1014 18.1075 16.8892 18.1075H13.4864ZM12.7362 29.4472V30.1614H13.4504H17.3633C17.5735 30.1614 18.3699 30.1315 19.141 29.7888C19.5342 29.6141 19.9522 29.3441 20.2734 28.9252C20.6021 28.4963 20.7982 27.9512 20.7982 27.2902C20.7982 25.9939 20.179 25.1826 19.3941 24.7382C18.6647 24.3253 17.8409 24.2517 17.3633 24.2517H13.4504H12.7362V24.9659V29.4472ZM34.4701 25.2455H35.3528L35.1686 24.3823C35.0636 23.8897 34.7954 23.112 34.2837 22.4396C33.7617 21.7535 32.9416 21.1279 31.7716 21.1279C30.1794 21.1279 29.2073 21.9122 28.6615 22.7268C28.3965 23.1223 28.2342 23.519 28.1375 23.8273C28.0889 23.9823 28.0555 24.1193 28.0337 24.2284C28.0162 24.3163 27.9963 24.4341 27.9963 24.5313V25.2455H28.7105H34.4701ZM28.1464 16.7142H34.8529V17.6101H28.1464V16.7142Z" fill="#212121" stroke="#212121" stroke-width="1.42847"/>
</svg>
