<svg width="48" height="48" viewBox="0 0 48 48" fill="none" xmlns="http://www.w3.org/2000/svg">
<circle cx="24" cy="24" r="24" fill="white"/>
<path d="M29.8357 12H18.5711C14.91 12 12 14.91 12 18.5711V29.8357C12 33.4967 14.91 36.4068 18.5711 36.4068H29.8357C33.4967 36.4068 36.4068 33.4967 36.4068 29.8357V18.5711C36.4068 14.91 33.4967 12 29.8357 12Z" stroke="#212121" stroke-width="2.44068" stroke-miterlimit="10" stroke-linecap="round" stroke-linejoin="round"/>
<path d="M30.493 16.6936C30.493 16.5381 30.6191 16.412 30.7747 16.412C30.9302 16.412 31.0563 16.5381 31.0563 16.6936C31.0563 16.8491 30.9302 16.9752 30.7747 16.9752C30.6191 16.9752 30.493 16.8491 30.493 16.6936Z" fill="white" stroke="#212121" stroke-width="2.44068"/>
<path d="M24.2026 29.4287C27.3133 29.4287 29.835 26.907 29.835 23.7964C29.835 20.6857 27.3133 18.1641 24.2026 18.1641C21.092 18.1641 18.5703 20.6857 18.5703 23.7964C18.5703 26.907 21.092 29.4287 24.2026 29.4287Z" stroke="#212121" stroke-width="2.44068" stroke-miterlimit="10" stroke-linecap="round" stroke-linejoin="round"/>
</svg>
