<svg width="1440" height="600" viewBox="0 0 1440 600" fill="none" xmlns="http://www.w3.org/2000/svg">
<mask id="mask0_523_1564" style="mask-type:alpha" maskUnits="userSpaceOnUse" x="0" y="0" width="1440" height="600">
<rect width="1440" height="600" fill="#25086C"/>
</mask>
<g mask="url(#mask0_523_1564)">
<g opacity="0.5">
<path d="M1178.77 -106.302C1178.77 -106.302 929.133 10.7158 1029.83 268.787C1102.09 453.957 1162.48 538.326 1100.23 654.162C1037.97 769.998 989.759 822.389 1019.23 871.205" stroke="#BFBFBF" stroke-miterlimit="10"/>
<path d="M1230.83 648.721C1230.83 648.721 1085.78 526.634 1207.82 357.783C1290.2 243.81 1139.16 85.5783 1179.97 -11.9958C1212.34 -89.3658 1340.89 -27.6779 1340.89 -27.6779" stroke="#BFBFBF" stroke-miterlimit="10"/>
<path d="M1396.43 618.899C1396.43 618.899 1296.15 526.951 1325.18 359.954C1354.21 192.957 1201.56 132.84 1239.13 55.2533C1276.69 -22.3329 1407.04 -17.2563 1407.04 -17.2563" stroke="#BFBFBF" stroke-miterlimit="10"/>
<path d="M1455.58 560.679C1455.58 560.679 1343.62 552.768 1347.71 441.964C1351.8 331.161 1487.81 259.126 1487.81 259.126" stroke="#BFBFBF" stroke-miterlimit="10"/>
<path d="M1573.75 207.687C1573.75 207.687 1471.43 253.814 1422.49 154.322C1373.54 54.8299 1459.12 -73.0853 1459.12 -73.0853" stroke="#BFBFBF" stroke-miterlimit="10"/>
</g>
</g>
</svg>
