<svg width="226" height="428" viewBox="0 0 226 428" fill="none" xmlns="http://www.w3.org/2000/svg">
<path d="M113.027 200.589C112.575 200.589 112.144 200.637 111.712 200.712L111.712 105.548C108.307 104.932 105.725 101.952 105.725 98.3763C105.725 94.3483 108.992 91.0739 113.027 91.0739C117.062 91.0739 120.33 94.3415 120.33 98.3763C120.33 101.89 117.843 104.829 114.534 105.521L114.534 200.746C114.048 200.643 113.548 200.589 113.034 200.589L113.027 200.589ZM117.412 98.3763C117.412 95.9581 115.452 93.999 113.034 93.999C110.616 93.999 108.657 95.9581 108.657 98.3763C108.657 100.794 110.616 102.754 113.034 102.754C115.452 102.754 117.412 100.794 117.412 98.3763Z" fill="#26C6DA"/>
<path d="M114.534 305.801C114.048 305.706 113.548 305.651 113.034 305.651C112.582 305.651 112.15 305.692 111.719 305.767L111.719 215.056C108.314 214.44 105.731 211.46 105.731 207.884C105.731 203.856 108.999 200.582 113.034 200.582C117.069 200.582 120.337 203.849 120.337 207.884C120.337 211.398 117.85 214.337 114.541 215.029L114.541 305.801L114.534 305.801ZM117.412 207.884C117.412 205.466 115.452 203.507 113.034 203.507C110.616 203.507 108.657 205.466 108.657 207.884C108.657 210.302 110.616 212.261 113.034 212.261C115.452 212.261 117.412 210.302 117.412 207.884Z" fill="#388E3C"/>
<path d="M113.027 389.217C112.575 389.217 112.144 389.265 111.712 389.34L111.712 320.118C108.307 319.502 105.725 316.522 105.725 312.946C105.725 308.918 108.992 305.644 113.027 305.644C117.062 305.644 120.33 308.911 120.33 312.946C120.33 316.46 117.843 319.399 114.534 320.091L114.534 389.374C114.048 389.272 113.548 389.217 113.034 389.217L113.027 389.217ZM117.412 312.946C117.412 310.528 115.452 308.569 113.034 308.569C110.616 308.569 108.657 310.528 108.657 312.946C108.657 315.364 110.616 317.324 113.034 317.324C115.452 317.324 117.412 315.364 117.412 312.946Z" fill="#AFB42B"/>
<path d="M133.257 311.836C132.641 311.836 132.147 312.337 132.147 312.946C132.147 313.556 132.648 314.056 133.257 314.056C133.867 314.056 134.367 313.556 134.367 312.946C134.367 312.337 133.867 311.836 133.257 311.836Z" fill="#64B44B"/>
<path d="M128.702 311.836C128.085 311.836 127.592 312.337 127.592 312.946C127.592 313.556 128.092 314.056 128.702 314.056C129.311 314.056 129.811 313.556 129.811 312.946C129.811 312.337 129.311 311.836 128.702 311.836Z" fill="#64B44B"/>
<path d="M124.146 311.836C123.529 311.836 123.036 312.337 123.036 312.946C123.036 313.556 123.536 314.056 124.146 314.056C124.756 314.056 125.256 313.556 125.256 312.946C125.256 312.337 124.756 311.836 124.146 311.836Z" fill="#64B44B"/>
<path d="M137.813 311.836C137.196 311.836 136.703 312.337 136.703 312.946C136.703 313.556 137.203 314.056 137.813 314.056C138.423 314.056 138.923 313.556 138.923 312.946C138.923 312.337 138.423 311.836 137.813 311.836Z" fill="#64B44B"/>
<path d="M97.7162 395.409C97.0997 395.409 96.6064 395.909 96.6064 396.519C96.6064 397.129 97.1065 397.629 97.7162 397.629C98.3259 397.629 98.826 397.129 98.826 396.519C98.826 395.909 98.3259 395.409 97.7162 395.409Z" fill="#FBC02D"/>
<path d="M93.1606 395.409C92.544 395.409 92.0508 395.909 92.0508 396.519C92.0508 397.129 92.5509 397.629 93.1606 397.629C93.7703 397.629 94.2704 397.129 94.2704 396.519C94.2704 395.909 93.7703 395.409 93.1606 395.409Z" fill="#FBC02D"/>
<path d="M88.6049 395.409C87.9884 395.409 87.4951 395.909 87.4951 396.519C87.4951 397.129 87.9952 397.629 88.6049 397.629C89.2146 397.629 89.7147 397.129 89.7147 396.519C89.7147 395.909 89.2146 395.409 88.6049 395.409Z" fill="#FBC02D"/>
<path d="M102.272 395.409C101.662 395.409 101.162 395.909 101.162 396.519C101.162 397.129 101.662 397.629 102.272 397.629C102.882 397.629 103.382 397.129 103.382 396.519C103.382 395.909 102.882 395.409 102.272 395.409Z" fill="#FBC02D"/>
<path d="M97.7162 206.774C97.0997 206.774 96.6064 207.274 96.6064 207.884C96.6064 208.494 97.1065 208.994 97.7162 208.994C98.3259 208.994 98.826 208.494 98.826 207.884C98.826 207.274 98.3259 206.774 97.7162 206.774Z" fill="#388E3C"/>
<path d="M93.1606 206.774C92.544 206.774 92.0508 207.274 92.0508 207.884C92.0508 208.494 92.5509 208.994 93.1606 208.994C93.7703 208.994 94.2704 208.494 94.2704 207.884C94.2704 207.274 93.7703 206.774 93.1606 206.774Z" fill="#388E3C"/>
<path d="M88.6049 206.774C87.9884 206.774 87.4951 207.274 87.4951 207.884C87.4951 208.494 87.9952 208.994 88.6049 208.994C89.2146 208.994 89.7147 208.494 89.7147 207.884C89.7147 207.274 89.2146 206.774 88.6049 206.774Z" fill="#388E3C"/>
<path d="M102.272 206.774C101.662 206.774 101.162 207.274 101.162 207.884C101.162 208.494 101.662 208.994 102.272 208.994C102.882 208.994 103.382 208.494 103.382 207.884C103.382 207.274 102.882 206.774 102.272 206.774Z" fill="#388E3C"/>
<path d="M97.7162 29.6204C97.0997 29.6204 96.6064 30.1205 96.6064 30.7302C96.6064 31.3398 97.1065 31.8399 97.7162 31.8399C98.3259 31.8399 98.826 31.3398 98.826 30.7302C98.826 30.1205 98.3259 29.6204 97.7162 29.6204Z" fill="#1976D2"/>
<path d="M94.2704 30.737C94.2704 31.3499 93.7735 31.8467 93.1606 31.8467C92.5477 31.8467 92.0508 31.3499 92.0508 30.737C92.0508 30.1241 92.5477 29.6273 93.1606 29.6273C93.7735 29.6273 94.2704 30.1241 94.2704 30.737Z" fill="#1976D2"/>
<path d="M88.6049 29.6204C87.9884 29.6204 87.4951 30.1205 87.4951 30.7302C87.4951 31.3398 87.9952 31.8399 88.6049 31.8399C89.2146 31.8399 89.7147 31.3398 89.7147 30.7302C89.7147 30.1205 89.2146 29.6204 88.6049 29.6204Z" fill="#1976D2"/>
<path d="M102.272 29.6204C101.662 29.6204 101.162 30.1205 101.162 30.7302C101.162 31.3398 101.662 31.8399 102.272 31.8399C102.882 31.8399 103.382 31.3398 103.382 30.7302C103.382 30.1205 102.882 29.6204 102.272 29.6204Z" fill="#1976D2"/>
<path d="M84.0492 395.409C83.4327 395.409 82.9395 395.909 82.9395 396.519C82.9395 397.129 83.4395 397.629 84.0492 397.629C84.6589 397.629 85.159 397.129 85.159 396.519C85.159 395.909 84.6589 395.409 84.0492 395.409Z" fill="#FBC02D"/>
<path d="M79.4936 395.409C78.877 395.409 78.3838 395.909 78.3838 396.519C78.3838 397.129 78.8839 397.629 79.4936 397.629C80.1033 397.629 80.6034 397.129 80.6034 396.519C80.6034 395.909 80.1033 395.409 79.4936 395.409Z" fill="#FBC02D"/>
<path d="M74.9379 395.409C74.3214 395.409 73.8281 395.909 73.8281 396.519C73.8281 397.129 74.3282 397.629 74.9379 397.629C75.5476 397.629 76.0477 397.129 76.0477 396.519C76.0477 395.909 75.5476 395.409 74.9379 395.409Z" fill="#FBC02D"/>
<path d="M84.0492 206.774C83.4327 206.774 82.9395 207.274 82.9395 207.884C82.9395 208.494 83.4395 208.994 84.0492 208.994C84.6589 208.994 85.159 208.494 85.159 207.884C85.159 207.274 84.6589 206.774 84.0492 206.774Z" fill="#388E3C"/>
<path d="M79.4936 206.774C78.877 206.774 78.3838 207.274 78.3838 207.884C78.3838 208.494 78.8839 208.994 79.4936 208.994C80.1033 208.994 80.6034 208.494 80.6034 207.884C80.6034 207.274 80.1033 206.774 79.4936 206.774Z" fill="#388E3C"/>
<path d="M74.9379 206.774C74.3214 206.774 73.8281 207.274 73.8281 207.884C73.8281 208.494 74.3282 208.994 74.9379 208.994C75.5476 208.994 76.0477 208.494 76.0477 207.884C76.0477 207.274 75.5476 206.774 74.9379 206.774Z" fill="#388E3C"/>
<path d="M84.0492 29.6204C83.4327 29.6204 82.9395 30.1205 82.9395 30.7302C82.9395 31.3398 83.4395 31.8399 84.0492 31.8399C84.6589 31.8399 85.159 31.3398 85.159 30.7302C85.159 30.1205 84.6589 29.6204 84.0492 29.6204Z" fill="#1976D2"/>
<path d="M79.4936 29.6204C78.877 29.6204 78.3838 30.1205 78.3838 30.7302C78.3838 31.3398 78.8839 31.8399 79.4936 31.8399C80.1033 31.8399 80.6034 31.3398 80.6034 30.7302C80.6034 30.1205 80.1033 29.6204 79.4936 29.6204Z" fill="#1976D2"/>
<path d="M74.9379 29.6204C74.3214 29.6204 73.8281 30.1205 73.8281 30.7302C73.8281 31.3398 74.3282 31.8399 74.9379 31.8399C75.5476 31.8399 76.0477 31.3398 76.0477 30.7302C76.0477 30.1205 75.5476 29.6204 74.9379 29.6204Z" fill="#1976D2"/>
<path d="M70.3822 395.409C69.7657 395.409 69.2725 395.909 69.2725 396.519C69.2725 397.129 69.7725 397.629 70.3822 397.629C70.9919 397.629 71.492 397.129 71.492 396.519C71.492 395.909 70.9919 395.409 70.3822 395.409Z" fill="#FBC02D"/>
<path d="M65.8266 395.409C65.21 395.409 64.7168 395.909 64.7168 396.519C64.7168 397.129 65.2169 397.629 65.8266 397.629C66.4363 397.629 66.9364 397.129 66.9364 396.519C66.9364 395.909 66.4363 395.409 65.8266 395.409Z" fill="#FBC02D"/>
<path d="M70.3822 206.774C69.7657 206.774 69.2725 207.274 69.2725 207.884C69.2725 208.494 69.7725 208.994 70.3822 208.994C70.9919 208.994 71.492 208.494 71.492 207.884C71.492 207.274 70.9919 206.774 70.3822 206.774Z" fill="#388E3C"/>
<path d="M65.8266 206.774C65.21 206.774 64.7168 207.274 64.7168 207.884C64.7168 208.494 65.2169 208.994 65.8266 208.994C66.4363 208.994 66.9364 208.494 66.9364 207.884C66.9364 207.274 66.4363 206.774 65.8266 206.774Z" fill="#388E3C"/>
<path d="M70.3822 29.6204C69.7657 29.6204 69.2725 30.1205 69.2725 30.7302C69.2725 31.3398 69.7725 31.8399 70.3822 31.8399C70.9919 31.8399 71.492 31.3398 71.492 30.7302C71.492 30.1205 70.9919 29.6204 70.3822 29.6204Z" fill="#1976D2"/>
<path d="M65.8266 29.6204C65.21 29.6204 64.7168 30.1205 64.7168 30.7302C64.7168 31.3398 65.2169 31.8399 65.8266 31.8399C66.4363 31.8399 66.9364 31.3398 66.9364 30.7302C66.9364 30.1205 66.4363 29.6204 65.8266 29.6204Z" fill="#1976D2"/>
<path d="M195.269 286.771C180.814 286.771 169.093 298.492 169.093 312.946C169.093 327.4 180.814 339.121 195.269 339.121C209.723 339.121 221.445 327.4 221.445 312.946C221.445 298.492 209.723 286.771 195.269 286.771Z" fill="#AFB42B"/>
<path d="M224.876 311.823C224.253 311.823 223.753 312.323 223.753 312.946C223.753 313.57 224.253 314.07 224.876 314.07C225.5 314.07 226 313.57 226 312.946C226 312.323 225.5 311.823 224.876 311.823Z" fill="#AFB42B"/>
<path d="M165.654 311.823C165.037 311.823 164.53 312.323 164.53 312.946C164.53 313.57 165.03 314.07 165.654 314.07C166.277 314.07 166.777 313.57 166.777 312.946C166.777 312.323 166.277 311.823 165.654 311.823Z" fill="#AFB42B"/>
<path d="M194.146 283.339C194.146 283.956 194.646 284.463 195.269 284.463C195.892 284.463 196.392 283.963 196.392 283.339C196.392 282.716 195.892 282.216 195.269 282.216C194.646 282.216 194.146 282.716 194.146 283.339Z" fill="#AFB42B"/>
<path d="M194.146 342.56C194.146 343.183 194.646 343.683 195.269 343.683C195.892 343.683 196.392 343.183 196.392 342.56C196.392 341.936 195.892 341.436 195.269 341.436C194.646 341.436 194.146 341.936 194.146 342.56Z" fill="#AFB42B"/>
<path d="M224.623 316.988C224.013 316.878 223.431 317.289 223.321 317.899C223.212 318.509 223.623 319.091 224.233 319.2C224.842 319.31 225.425 318.899 225.534 318.289C225.644 317.68 225.233 317.097 224.623 316.988Z" fill="#AFB42B"/>
<path d="M166.298 306.699C165.688 306.589 165.106 307 164.996 307.61C164.887 308.22 165.298 308.802 165.907 308.911C166.517 309.021 167.099 308.61 167.209 308C167.319 307.391 166.908 306.808 166.298 306.699Z" fill="#AFB42B"/>
<path d="M199.304 283.593C199.194 284.203 199.605 284.785 200.215 284.895C200.825 285.004 201.407 284.593 201.517 283.983C201.626 283.374 201.215 282.791 200.605 282.682C199.996 282.572 199.413 282.983 199.304 283.593Z" fill="#AFB42B"/>
<path d="M189.022 341.916C188.912 342.526 189.323 343.108 189.933 343.217C190.542 343.327 191.125 342.916 191.234 342.306C191.344 341.697 190.933 341.114 190.323 341.005C189.714 340.895 189.131 341.306 189.022 341.916Z" fill="#AFB42B"/>
<path d="M223.479 322.023C222.897 321.81 222.253 322.112 222.041 322.694C221.828 323.276 222.13 323.92 222.712 324.133C223.294 324.345 223.938 324.044 224.151 323.461C224.363 322.879 224.062 322.235 223.479 322.023Z" fill="#AFB42B"/>
<path d="M167.825 301.767C167.243 301.554 166.599 301.856 166.386 302.438C166.174 303.02 166.475 303.664 167.058 303.876C167.64 304.089 168.284 303.787 168.496 303.205C168.709 302.623 168.407 301.979 167.825 301.767Z" fill="#AFB42B"/>
<path d="M204.339 284.737C204.126 285.319 204.428 285.963 205.01 286.175C205.592 286.388 206.236 286.086 206.449 285.504C206.661 284.922 206.359 284.278 205.777 284.066C205.195 283.853 204.551 284.155 204.339 284.737Z" fill="#AFB42B"/>
<path d="M184.082 340.388C183.869 340.971 184.171 341.614 184.753 341.827C185.335 342.039 185.979 341.738 186.192 341.156C186.404 340.573 186.103 339.929 185.52 339.717C184.938 339.505 184.294 339.806 184.082 340.388Z" fill="#AFB42B"/>
<path d="M221.472 326.784C220.938 326.475 220.246 326.66 219.937 327.195C219.629 327.729 219.814 328.421 220.348 328.729C220.883 329.037 221.575 328.853 221.883 328.318C222.191 327.784 222.006 327.092 221.472 326.784Z" fill="#AFB42B"/>
<path d="M170.182 297.17C169.647 296.862 168.956 297.047 168.647 297.581C168.339 298.115 168.524 298.807 169.058 299.116C169.593 299.424 170.285 299.239 170.593 298.705C170.901 298.17 170.716 297.478 170.182 297.17Z" fill="#AFB42B"/>
<path d="M209.1 286.744C208.792 287.278 208.977 287.97 209.511 288.279C210.046 288.587 210.738 288.402 211.046 287.868C211.354 287.333 211.169 286.641 210.635 286.333C210.101 286.025 209.409 286.21 209.1 286.744Z" fill="#AFB42B"/>
<path d="M179.485 338.032C179.177 338.566 179.362 339.258 179.896 339.566C180.431 339.875 181.122 339.69 181.431 339.155C181.739 338.621 181.554 337.929 181.02 337.621C180.485 337.313 179.793 337.497 179.485 338.032Z" fill="#AFB42B"/>
<path d="M218.67 331.12C218.197 330.723 217.485 330.784 217.087 331.257C216.69 331.73 216.752 332.442 217.224 332.839C217.697 333.237 218.409 333.175 218.807 332.702C219.204 332.23 219.142 331.517 218.67 331.12Z" fill="#AFB42B"/>
<path d="M173.299 293.053C172.826 292.656 172.113 292.717 171.716 293.19C171.319 293.663 171.38 294.375 171.853 294.773C172.326 295.17 173.038 295.108 173.436 294.636C173.833 294.163 173.771 293.45 173.299 293.053Z" fill="#AFB42B"/>
<path d="M213.443 289.539C213.045 290.012 213.107 290.724 213.58 291.121C214.052 291.519 214.765 291.457 215.162 290.984C215.559 290.512 215.498 289.799 215.025 289.402C214.552 289.005 213.84 289.066 213.443 289.539Z" fill="#AFB42B"/>
<path d="M175.367 334.908C174.97 335.381 175.032 336.093 175.504 336.49C175.977 336.888 176.69 336.826 177.087 336.353C177.484 335.881 177.423 335.168 176.95 334.771C176.477 334.374 175.765 334.435 175.367 334.908Z" fill="#AFB42B"/>
<path d="M215.162 334.908C214.765 334.435 214.052 334.374 213.58 334.771C213.107 335.168 213.045 335.881 213.443 336.353C213.84 336.826 214.552 336.888 215.025 336.49C215.498 336.093 215.559 335.381 215.162 334.908Z" fill="#AFB42B"/>
<path d="M177.087 289.539C176.69 289.066 175.977 289.005 175.504 289.402C175.032 289.799 174.97 290.512 175.367 290.984C175.765 291.457 176.477 291.519 176.95 291.121C177.423 290.724 177.484 290.012 177.087 289.539Z" fill="#AFB42B"/>
<path d="M217.231 293.053C216.758 293.45 216.697 294.163 217.094 294.636C217.491 295.108 218.204 295.17 218.677 294.773C219.149 294.375 219.211 293.663 218.814 293.19C218.416 292.717 217.704 292.656 217.231 293.053Z" fill="#AFB42B"/>
<path d="M171.86 331.12C171.387 331.517 171.326 332.23 171.723 332.702C172.12 333.175 172.833 333.237 173.305 332.839C173.778 332.442 173.84 331.73 173.442 331.257C173.045 330.784 172.333 330.723 171.86 331.12Z" fill="#AFB42B"/>
<path d="M211.046 338.032C210.738 337.497 210.053 337.313 209.511 337.621C208.977 337.929 208.792 338.614 209.1 339.155C209.409 339.69 210.101 339.875 210.635 339.566C211.169 339.258 211.354 338.566 211.046 338.032Z" fill="#AFB42B"/>
<path d="M181.431 286.744C181.122 286.21 180.437 286.025 179.896 286.333C179.362 286.641 179.177 287.333 179.485 287.868C179.793 288.402 180.478 288.587 181.02 288.279C181.554 287.97 181.739 287.285 181.431 286.744Z" fill="#AFB42B"/>
<path d="M220.348 297.17C219.814 297.478 219.629 298.17 219.937 298.705C220.246 299.239 220.931 299.424 221.472 299.116C222.006 298.807 222.191 298.122 221.883 297.581C221.575 297.047 220.89 296.862 220.348 297.17Z" fill="#AFB42B"/>
<path d="M169.058 326.784C168.524 327.092 168.339 327.777 168.647 328.318C168.956 328.853 169.641 329.037 170.182 328.729C170.716 328.421 170.901 327.729 170.593 327.195C170.285 326.66 169.593 326.475 169.058 326.784Z" fill="#AFB42B"/>
<path d="M206.449 340.388C206.236 339.806 205.592 339.505 205.01 339.717C204.428 339.929 204.126 340.573 204.339 341.155C204.551 341.738 205.195 342.039 205.777 341.827C206.359 341.614 206.661 340.97 206.449 340.388Z" fill="#AFB42B"/>
<path d="M186.192 284.737C185.979 284.155 185.335 283.853 184.753 284.066C184.171 284.278 183.869 284.922 184.082 285.504C184.294 286.086 184.938 286.388 185.52 286.175C186.103 285.963 186.404 285.319 186.192 284.737Z" fill="#AFB42B"/>
<path d="M222.712 301.767C222.13 301.979 221.828 302.623 222.041 303.205C222.253 303.787 222.897 304.089 223.479 303.876C224.062 303.664 224.363 303.02 224.151 302.438C223.938 301.856 223.294 301.554 222.712 301.767Z" fill="#AFB42B"/>
<path d="M167.051 322.023C166.469 322.235 166.167 322.879 166.38 323.461C166.592 324.044 167.236 324.345 167.818 324.133C168.4 323.92 168.702 323.276 168.49 322.694C168.277 322.112 167.633 321.81 167.051 322.023Z" fill="#AFB42B"/>
<path d="M201.516 341.916C201.406 341.306 200.824 340.895 200.214 341.005C199.604 341.114 199.193 341.697 199.303 342.306C199.412 342.916 199.995 343.327 200.604 343.217C201.214 343.108 201.625 342.526 201.516 341.916Z" fill="#AFB42B"/>
<path d="M191.227 283.593C191.117 282.983 190.535 282.572 189.925 282.682C189.315 282.791 188.904 283.374 189.014 283.983C189.123 284.593 189.706 285.004 190.315 284.895C190.925 284.785 191.336 284.203 191.227 283.593Z" fill="#AFB42B"/>
<path d="M224.233 306.699C223.623 306.808 223.212 307.391 223.321 308C223.431 308.61 224.013 309.021 224.623 308.911C225.233 308.802 225.644 308.22 225.534 307.61C225.425 307 224.842 306.589 224.233 306.699Z" fill="#AFB42B"/>
<path d="M165.907 316.988C165.298 317.097 164.887 317.68 164.996 318.289C165.106 318.899 165.688 319.31 166.298 319.2C166.908 319.091 167.319 318.509 167.209 317.899C167.099 317.289 166.517 316.878 165.907 316.988Z" fill="#AFB42B"/>
<path d="M56.9145 30.737C56.9145 45.1929 45.1951 56.9118 30.7385 56.9118C16.2819 56.9118 4.5625 45.1929 4.5625 30.737C4.5625 16.2811 16.2819 4.56226 30.7385 4.56225C45.1951 4.56225 56.9145 16.2811 56.9145 30.737Z" fill="#1976D2"/>
<path d="M60.3461 29.6136C59.7296 29.6136 59.2227 30.1137 59.2227 30.737C59.2227 31.3604 59.7227 31.8605 60.3461 31.8605C60.9695 31.8605 61.4696 31.3604 61.4696 30.737C61.4696 30.1137 60.9695 29.6136 60.3461 29.6136Z" fill="#1976D2"/>
<path d="M2.24698 30.737C2.24698 31.3575 1.74398 31.8605 1.12349 31.8605C0.503005 31.8605 7.62281e-08 31.3575 4.91071e-08 30.737C2.1986e-08 30.1166 0.503004 29.6136 1.12349 29.6136C1.74398 29.6136 2.24698 30.1166 2.24698 30.737Z" fill="#1976D2"/>
<path d="M29.6152 1.12344C29.6152 1.74681 30.1153 2.24688 30.7387 2.24688C31.3621 2.24688 31.8622 1.74681 31.8622 1.12344C31.8622 0.500067 31.3621 -7.63591e-08 30.7387 -4.91094e-08C30.1153 -2.18597e-08 29.6152 0.500067 29.6152 1.12344Z" fill="#1976D2"/>
<path d="M29.6152 60.3437C29.6152 60.9671 30.1153 61.4672 30.7387 61.4672C31.3621 61.4672 31.8622 60.9671 31.8622 60.3437C31.8622 59.7203 31.3621 59.2203 30.7387 59.2203C30.1153 59.2203 29.6152 59.7203 29.6152 60.3437Z" fill="#1976D2"/>
<path d="M60.0927 34.7718C59.483 34.6622 58.9007 35.0732 58.7911 35.6829C58.6815 36.2925 59.0926 36.8748 59.7023 36.9844C60.312 37.094 60.8943 36.683 61.0039 36.0733C61.1135 35.4637 60.7024 34.8814 60.0927 34.7718Z" fill="#1976D2"/>
<path d="M1.76755 24.4896C1.15785 24.38 0.575553 24.791 0.465944 25.4007C0.356335 26.0103 0.767369 26.5926 1.37707 26.7022C1.98677 26.8118 2.56907 26.4008 2.67868 25.7911C2.78828 25.1815 2.37725 24.5992 1.76755 24.4896Z" fill="#1976D2"/>
<path d="M34.7736 1.3769C34.664 1.98657 35.075 2.56884 35.6847 2.67845C36.2944 2.78805 36.8767 2.37704 36.9863 1.76737C37.0959 1.15769 36.6849 0.575425 36.0752 0.465821C35.4655 0.356217 34.8832 0.767232 34.7736 1.3769Z" fill="#1976D2"/>
<path d="M24.4913 59.6998C24.3817 60.3095 24.7928 60.8918 25.4025 61.0014C26.0122 61.111 26.5945 60.7 26.7041 60.0903C26.8137 59.4806 26.4026 58.8984 25.7929 58.7888C25.1832 58.6792 24.6009 59.0902 24.4913 59.6998Z" fill="#1976D2"/>
<path d="M58.9491 39.8067C58.3668 39.5943 57.7228 39.8957 57.5104 40.478C57.2981 41.0603 57.5995 41.7042 58.1818 41.9166C58.7641 42.1289 59.408 41.8275 59.6204 41.2452C59.8328 40.663 59.5314 40.0191 58.9491 39.8067Z" fill="#1976D2"/>
<path d="M3.29475 19.5506C2.71246 19.3382 2.0685 19.6396 1.85614 20.2219C1.64377 20.8042 1.94519 21.4481 2.52749 21.6605C3.10979 21.8728 3.75374 21.5714 3.96611 20.9891C4.17848 20.4069 3.87705 19.7629 3.29475 19.5506Z" fill="#1976D2"/>
<path d="M39.8083 2.52089C39.5959 3.10316 39.8973 3.74709 40.4796 3.95944C41.0619 4.1718 41.7059 3.87039 41.9183 3.28812C42.1306 2.70585 41.8292 2.06193 41.2469 1.84957C40.6646 1.63721 40.0207 1.93862 39.8083 2.52089Z" fill="#1976D2"/>
<path d="M19.5514 58.1791C19.3391 58.7613 19.6405 59.4053 20.2228 59.6176C20.8051 59.83 21.4491 59.5286 21.6614 58.9463C21.8738 58.364 21.5724 57.7201 20.9901 57.5077C20.4078 57.2954 19.7638 57.5968 19.5514 58.1791Z" fill="#1976D2"/>
<path d="M56.9416 44.5676C56.4072 44.2594 55.7153 44.4443 55.407 44.9786C55.0988 45.5129 55.2837 46.2048 55.8181 46.5131C56.3524 46.8213 57.0443 46.6364 57.3526 46.1021C57.6609 45.5678 57.4759 44.8759 56.9416 44.5676Z" fill="#1976D2"/>
<path d="M5.65152 14.9541C5.11718 14.6458 4.42527 14.8308 4.117 15.3651C3.80872 15.8994 3.99369 16.5913 4.52803 16.8995C5.06238 17.2078 5.75428 17.0228 6.06256 16.4885C6.37083 15.9542 6.18587 15.2623 5.65152 14.9541Z" fill="#1976D2"/>
<path d="M44.5701 4.52801C44.2618 5.06232 44.4468 5.7542 44.9812 6.06246C45.5155 6.37072 46.2074 6.18576 46.5157 5.65144C46.824 5.11713 46.639 4.42525 46.1047 4.11699C45.5703 3.80873 44.8784 3.99369 44.5701 4.52801Z" fill="#1976D2"/>
<path d="M14.9549 55.8157C14.6466 56.35 14.8316 57.0419 15.3659 57.3502C15.9003 57.6584 16.5922 57.4735 16.9004 56.9392C17.2087 56.4048 17.0238 55.713 16.4894 55.4047C15.9551 55.0964 15.2632 55.2814 14.9549 55.8157Z" fill="#1976D2"/>
<path d="M54.1394 48.9107C53.6667 48.5134 52.9543 48.575 52.5569 49.0477C52.1596 49.5203 52.2212 50.2328 52.6939 50.6301C53.1666 51.0274 53.8791 50.9657 54.2764 50.4931C54.6737 50.0204 54.6121 49.308 54.1394 48.9107Z" fill="#1976D2"/>
<path d="M8.77514 10.8439C8.30245 10.4466 7.58999 10.5083 7.19266 10.9809C6.79533 11.4536 6.85698 12.166 7.32967 12.5633C7.80236 12.9606 8.51482 12.899 8.91215 12.4263C9.30948 11.9537 9.24783 11.2412 8.77514 10.8439Z" fill="#1976D2"/>
<path d="M48.9124 7.32974C48.5151 7.80241 48.5767 8.51484 49.0494 8.91215C49.5221 9.30946 50.2345 9.24781 50.6319 8.77514C51.0292 8.30248 50.9676 7.59005 50.4949 7.19274C50.0222 6.79543 49.3097 6.85708 48.9124 7.32974Z" fill="#1976D2"/>
<path d="M10.844 52.6989C10.4467 53.1715 10.5084 53.8839 10.981 54.2813C11.4537 54.6786 12.1662 54.6169 12.5635 54.1443C12.9609 53.6716 12.8992 52.9592 12.4265 52.5619C11.9538 52.1645 11.2414 52.2262 10.844 52.6989Z" fill="#1976D2"/>
<path d="M50.6319 52.6989C50.2345 52.2262 49.5221 52.1645 49.0494 52.5619C48.5767 52.9592 48.5151 53.6716 48.9124 54.1443C49.3097 54.6169 50.0222 54.6786 50.4949 54.2813C50.9676 53.8839 51.0292 53.1715 50.6319 52.6989Z" fill="#1976D2"/>
<path d="M12.5567 7.32974C12.1593 6.85708 11.4469 6.79543 10.9742 7.19274C10.5015 7.59005 10.4399 8.29563 10.8372 8.77514C11.2345 9.24781 11.947 9.30946 12.4197 8.91215C12.8924 8.51484 12.954 7.80241 12.5567 7.32974Z" fill="#1976D2"/>
<path d="M52.7008 10.8439C52.2281 11.2412 52.1664 11.9537 52.5638 12.4263C52.9611 12.899 53.6735 12.9606 54.1462 12.5633C54.6189 12.166 54.6806 11.4536 54.2832 10.9809C53.8859 10.5083 53.1735 10.4466 52.7008 10.8439Z" fill="#1976D2"/>
<path d="M7.32967 48.9107C6.85698 49.308 6.79533 50.0204 7.19266 50.4931C7.58999 50.9657 8.30245 51.0274 8.77514 50.6301C9.24783 50.2328 9.30948 49.5203 8.91215 49.0477C8.51482 48.575 7.80236 48.5134 7.32967 48.9107Z" fill="#1976D2"/>
<path d="M46.5157 55.8157C46.2074 55.2814 45.5224 55.0964 44.9812 55.4047C44.4468 55.713 44.2618 56.398 44.5701 56.9392C44.8784 57.4735 45.5635 57.6584 46.1047 57.3502C46.639 57.0419 46.824 56.3569 46.5157 55.8157Z" fill="#1976D2"/>
<path d="M16.9004 4.52801C16.5922 3.99369 15.9003 3.80873 15.3659 4.11699C14.8316 4.42525 14.6466 5.11713 14.9549 5.65144C15.2632 6.18576 15.9551 6.37072 16.4894 6.06246C17.0238 5.7542 17.2087 5.06917 16.9004 4.52801Z" fill="#1976D2"/>
<path d="M55.8181 14.9541C55.2837 15.2623 55.0988 15.9542 55.407 16.4885C55.7153 17.0228 56.4072 17.2078 56.9416 16.8995C57.4759 16.5913 57.6609 15.8994 57.3526 15.3651C57.0443 14.8308 56.3593 14.6458 55.8181 14.9541Z" fill="#1976D2"/>
<path d="M4.52803 44.5676C3.99369 44.8759 3.80872 45.5609 4.117 46.1021C4.42527 46.6364 5.11033 46.8213 5.65152 46.5131C6.18587 46.2048 6.37083 45.5129 6.06256 44.9786C5.75428 44.4443 5.06923 44.2594 4.52803 44.5676Z" fill="#1976D2"/>
<path d="M41.9183 58.1791C41.7059 57.5968 41.0619 57.2954 40.4796 57.5077C39.8973 57.7201 39.5959 58.364 39.8083 58.9463C40.0207 59.5286 40.6646 59.83 41.2469 59.6176C41.8292 59.4053 42.1306 58.7613 41.9183 58.1791Z" fill="#1976D2"/>
<path d="M21.6614 2.52089C21.4491 1.93862 20.8051 1.63721 20.2228 1.84957C19.6405 2.06193 19.3391 2.70585 19.5514 3.28812C19.7638 3.87039 20.4078 4.1718 20.9901 3.95944C21.5724 3.74709 21.8738 3.10316 21.6614 2.52089Z" fill="#1976D2"/>
<path d="M58.1818 19.5506C57.5995 19.7629 57.2981 20.4069 57.5104 20.9891C57.7228 21.5714 58.3668 21.8728 58.9491 21.6605C59.5314 21.4481 59.8328 20.8042 59.6204 20.2219C59.408 19.6396 58.7641 19.3382 58.1818 19.5506Z" fill="#1976D2"/>
<path d="M2.52065 39.8068C1.93836 40.0191 1.63693 40.663 1.8493 41.2453C2.06167 41.8276 2.70562 42.129 3.28792 41.9166C3.87022 41.7043 4.17164 41.0603 3.95927 40.4781C3.7469 39.8958 3.10295 39.5944 2.52065 39.8068Z" fill="#1976D2"/>
<path d="M36.9863 59.6998C36.8767 59.0901 36.2944 58.6791 35.6847 58.7887C35.075 58.8983 34.664 59.4806 34.7736 60.0902C34.8832 60.6999 35.4655 61.1109 36.0752 61.0013C36.6849 60.8917 37.0959 60.3095 36.9863 59.6998Z" fill="#1976D2"/>
<path d="M26.6972 1.3769C26.5876 0.767231 26.0053 0.356217 25.3956 0.465821C24.7859 0.575425 24.3749 1.15769 24.4845 1.76737C24.5941 2.37704 25.1764 2.78805 25.7861 2.67845C26.3958 2.56884 26.8068 1.98657 26.6972 1.3769Z" fill="#1976D2"/>
<path d="M59.7023 24.4896C59.0926 24.5992 58.6815 25.1815 58.7911 25.7911C58.9007 26.4008 59.483 26.8118 60.0927 26.7022C60.7024 26.5926 61.1135 26.0103 61.0039 25.4007C60.8943 24.791 60.312 24.38 59.7023 24.4896Z" fill="#1976D2"/>
<path d="M1.37707 34.7718C0.767369 34.8814 0.356335 35.4637 0.465944 36.0733C0.575553 36.683 1.15785 37.094 1.76755 36.9844C2.37725 36.8748 2.78828 36.2925 2.67868 35.6829C2.56907 35.0732 1.98677 34.6622 1.37707 34.7718Z" fill="#1976D2"/>
<path d="M146.924 311.836C146.308 311.836 145.814 312.337 145.814 312.946C145.814 313.556 146.315 314.056 146.924 314.056C147.534 314.056 148.034 313.556 148.034 312.946C148.034 312.337 147.534 311.836 146.924 311.836Z" fill="#64B44B"/>
<path d="M142.369 311.836C141.752 311.836 141.259 312.337 141.259 312.946C141.259 313.556 141.759 314.056 142.369 314.056C142.978 314.056 143.478 313.556 143.478 312.946C143.478 312.337 142.978 311.836 142.369 311.836Z" fill="#64B44B"/>
<path d="M151.48 311.836C150.863 311.836 150.37 312.337 150.37 312.946C150.37 313.556 150.87 314.056 151.48 314.056C152.09 314.056 152.59 313.556 152.59 312.946C152.59 312.337 152.09 311.836 151.48 311.836Z" fill="#64B44B"/>
<path d="M156.042 311.836C155.426 311.836 154.933 312.337 154.933 312.946C154.933 313.556 155.433 314.056 156.042 314.056C156.652 314.056 157.152 313.556 157.152 312.946C157.152 312.337 156.652 311.836 156.042 311.836Z" fill="#64B44B"/>
<path d="M160.598 311.836C159.982 311.836 159.488 312.337 159.488 312.946C159.488 313.556 159.988 314.056 160.598 314.056C161.208 314.056 161.708 313.556 161.708 312.946C161.708 312.337 161.208 311.836 160.598 311.836Z" fill="#64B44B"/>
<path d="M30.7385 422.694C45.1932 422.694 56.9145 410.973 56.9145 396.519C56.9145 382.065 45.1932 370.344 30.7385 370.344C16.2838 370.344 4.5625 382.065 4.5625 396.519C4.5625 410.973 16.2838 422.694 30.7385 422.694Z" fill="#FBC02D"/>
<path d="M2.24698 396.519C2.24698 397.14 1.74398 397.643 1.12349 397.643C0.503005 397.643 7.62286e-08 397.14 4.91075e-08 396.519C2.19864e-08 395.899 0.503004 395.396 1.12349 395.396C1.74398 395.396 2.24698 395.899 2.24698 396.519Z" fill="#FBC02D"/>
<path d="M60.3461 397.643C60.9695 397.643 61.4696 397.143 61.4696 396.519C61.4696 395.896 60.9695 395.396 60.3461 395.396C59.7227 395.396 59.2227 395.896 59.2227 396.519C59.2227 397.143 59.7227 397.643 60.3461 397.643Z" fill="#FBC02D"/>
<path d="M31.8554 426.133C31.8554 425.516 31.3553 425.009 30.7319 425.009C30.1085 425.009 29.6084 425.509 29.6084 426.133C29.6084 426.756 30.1085 427.256 30.7319 427.256C31.3553 427.256 31.8554 426.756 31.8554 426.133Z" fill="#FBC02D"/>
<path d="M31.8554 366.906C31.8554 366.289 31.3553 365.782 30.7319 365.782C30.1085 365.782 29.6084 366.282 29.6084 366.906C29.6084 367.529 30.1085 368.029 30.7319 368.029C31.3553 368.029 31.8554 367.529 31.8554 366.906Z" fill="#FBC02D"/>
<path d="M1.37707 392.484C1.98677 392.594 2.56907 392.183 2.67868 391.573C2.78828 390.964 2.37725 390.381 1.76755 390.272C1.15785 390.162 0.575553 390.573 0.465944 391.183C0.356335 391.792 0.767369 392.375 1.37707 392.484Z" fill="#FBC02D"/>
<path d="M59.7023 402.767C60.312 402.876 60.8943 402.465 61.0039 401.856C61.1135 401.246 60.7024 400.664 60.0927 400.554C59.483 400.444 58.9007 400.855 58.7911 401.465C58.6815 402.075 59.0926 402.657 59.7023 402.767Z" fill="#FBC02D"/>
<path d="M26.6972 425.879C26.8068 425.27 26.3958 424.687 25.7861 424.578C25.1764 424.468 24.5941 424.879 24.4845 425.489C24.3749 426.099 24.7859 426.681 25.3956 426.79C26.0053 426.9 26.5876 426.489 26.6972 425.879Z" fill="#FBC02D"/>
<path d="M36.9863 367.55C37.0959 366.94 36.6849 366.358 36.0752 366.248C35.4655 366.138 34.8832 366.549 34.7736 367.159C34.664 367.769 35.075 368.351 35.6847 368.461C36.2944 368.57 36.8767 368.159 36.9863 367.55Z" fill="#FBC02D"/>
<path d="M2.52065 387.443C3.10295 387.655 3.7469 387.353 3.95927 386.771C4.17164 386.189 3.87021 385.545 3.28792 385.333C2.70562 385.12 2.06167 385.422 1.8493 386.004C1.63693 386.586 1.93836 387.23 2.52065 387.443Z" fill="#FBC02D"/>
<path d="M58.1818 407.699C58.7641 407.911 59.408 407.61 59.6204 407.027C59.8328 406.445 59.5314 405.801 58.9491 405.589C58.3668 405.377 57.7228 405.678 57.5104 406.26C57.2981 406.842 57.5995 407.486 58.1818 407.699Z" fill="#FBC02D"/>
<path d="M21.6614 424.728C21.8738 424.146 21.5724 423.502 20.9901 423.29C20.4078 423.078 19.7638 423.379 19.5514 423.961C19.3391 424.544 19.6405 425.187 20.2228 425.4C20.8051 425.612 21.4491 425.311 21.6614 424.728Z" fill="#FBC02D"/>
<path d="M41.9183 369.077C42.1306 368.495 41.8292 367.851 41.2469 367.639C40.6646 367.426 40.0207 367.728 39.8083 368.31C39.5959 368.892 39.8973 369.536 40.4796 369.748C41.0619 369.961 41.7059 369.659 41.9183 369.077Z" fill="#FBC02D"/>
<path d="M4.52803 382.689C5.06238 382.997 5.75428 382.812 6.06256 382.277C6.37083 381.743 6.18587 381.051 5.65152 380.743C5.11718 380.435 4.42527 380.62 4.117 381.154C3.80872 381.688 3.99369 382.38 4.52803 382.689Z" fill="#FBC02D"/>
<path d="M55.8181 412.295C56.3524 412.603 57.0443 412.425 57.3526 411.884C57.6609 411.35 57.4759 410.658 56.9416 410.35C56.4072 410.042 55.7153 410.226 55.407 410.761C55.0988 411.302 55.2837 411.987 55.8181 412.295Z" fill="#FBC02D"/>
<path d="M16.9004 422.728C17.2087 422.187 17.0238 421.502 16.4894 421.194C15.9551 420.885 15.2632 421.063 14.9549 421.605C14.6466 422.139 14.8316 422.831 15.3659 423.139C15.9003 423.447 16.5922 423.262 16.9004 422.728Z" fill="#FBC02D"/>
<path d="M46.5157 371.434C46.824 370.892 46.639 370.207 46.1047 369.899C45.5703 369.591 44.8784 369.769 44.5701 370.31C44.2618 370.844 44.4468 371.536 44.9812 371.845C45.5155 372.153 46.2074 371.968 46.5157 371.434Z" fill="#FBC02D"/>
<path d="M7.32967 378.345C7.80236 378.743 8.51482 378.681 8.91215 378.208C9.30948 377.736 9.24783 377.023 8.77514 376.626C8.30245 376.229 7.58999 376.29 7.19266 376.763C6.79533 377.236 6.85698 377.948 7.32967 378.345Z" fill="#FBC02D"/>
<path d="M52.7008 416.412C53.1735 416.81 53.8859 416.748 54.2832 416.275C54.6806 415.803 54.6189 415.09 54.1462 414.693C53.6735 414.296 52.9611 414.357 52.5638 414.83C52.1664 415.303 52.2281 416.015 52.7008 416.412Z" fill="#FBC02D"/>
<path d="M12.5567 419.926C12.954 419.454 12.8924 418.741 12.4197 418.344C11.947 417.947 11.2345 418.008 10.8372 418.481C10.4399 418.954 10.5015 419.666 10.9742 420.063C11.4469 420.461 12.1594 420.399 12.5567 419.926Z" fill="#FBC02D"/>
<path d="M50.6319 374.557C51.0292 374.085 50.9676 373.372 50.4949 372.975C50.0222 372.578 49.3097 372.639 48.9124 373.112C48.5151 373.585 48.5767 374.297 49.0494 374.694C49.5221 375.092 50.2345 375.03 50.6319 374.557Z" fill="#FBC02D"/>
<path d="M10.844 374.557C11.2414 375.03 11.9538 375.098 12.4265 374.694C12.8992 374.297 12.9609 373.585 12.5635 373.112C12.1662 372.639 11.4537 372.578 10.981 372.975C10.5084 373.372 10.4467 374.085 10.844 374.557Z" fill="#FBC02D"/>
<path d="M48.9124 419.926C49.3097 420.399 50.0222 420.461 50.4949 420.063C50.9676 419.666 51.0292 418.954 50.6319 418.481C50.2345 418.008 49.5221 417.947 49.0494 418.344C48.5767 418.741 48.5151 419.454 48.9124 419.926Z" fill="#FBC02D"/>
<path d="M8.77514 416.412C9.24783 416.015 9.30948 415.303 8.91215 414.83C8.51482 414.357 7.80236 414.296 7.32967 414.693C6.85698 415.09 6.79533 415.803 7.19266 416.275C7.58999 416.748 8.30245 416.81 8.77514 416.412Z" fill="#FBC02D"/>
<path d="M54.1394 378.345C54.6121 377.948 54.6737 377.236 54.2764 376.763C53.8791 376.29 53.1666 376.229 52.6939 376.626C52.2212 377.023 52.1596 377.736 52.5569 378.208C52.9543 378.681 53.6667 378.75 54.1394 378.345Z" fill="#FBC02D"/>
<path d="M14.9549 371.434C15.2632 371.968 15.9551 372.153 16.4894 371.845C17.0238 371.536 17.2087 370.844 16.9004 370.31C16.5922 369.769 15.9003 369.591 15.3659 369.899C14.8316 370.207 14.6466 370.892 14.9549 371.434Z" fill="#FBC02D"/>
<path d="M44.5701 422.728C44.8784 423.262 45.5635 423.447 46.1047 423.139C46.639 422.831 46.824 422.139 46.5157 421.605C46.2074 421.063 45.5224 420.885 44.9812 421.194C44.4468 421.502 44.2618 422.187 44.5701 422.728Z" fill="#FBC02D"/>
<path d="M5.65152 412.295C6.18587 411.987 6.37083 411.302 6.06256 410.761C5.75428 410.226 5.06923 410.042 4.52803 410.35C3.99369 410.658 3.80872 411.35 4.117 411.884C4.42527 412.425 5.11033 412.603 5.65152 412.295Z" fill="#FBC02D"/>
<path d="M56.9416 382.689C57.4759 382.38 57.6609 381.688 57.3526 381.154C57.0443 380.62 56.3593 380.435 55.8181 380.743C55.2837 381.051 55.0988 381.743 55.407 382.277C55.7153 382.812 56.4072 382.997 56.9416 382.689Z" fill="#FBC02D"/>
<path d="M19.5514 369.077C19.7638 369.659 20.4078 369.961 20.9901 369.748C21.5724 369.536 21.8738 368.892 21.6614 368.31C21.4491 367.728 20.8051 367.426 20.2228 367.639C19.6405 367.851 19.3391 368.495 19.5514 369.077Z" fill="#FBC02D"/>
<path d="M39.8083 424.728C40.0207 425.311 40.6646 425.612 41.2469 425.4C41.8292 425.187 42.1306 424.544 41.9183 423.961C41.7059 423.379 41.0619 423.078 40.4796 423.29C39.8973 423.502 39.5959 424.146 39.8083 424.728Z" fill="#FBC02D"/>
<path d="M3.29475 407.699C3.87705 407.486 4.17848 406.842 3.96611 406.26C3.75374 405.678 3.10979 405.377 2.52749 405.589C1.94519 405.801 1.64377 406.445 1.85614 407.027C2.0685 407.61 2.71246 407.911 3.29475 407.699Z" fill="#FBC02D"/>
<path d="M58.9491 387.443C59.5314 387.23 59.8328 386.586 59.6204 386.004C59.408 385.422 58.7641 385.12 58.1818 385.333C57.5995 385.545 57.2981 386.189 57.5104 386.771C57.7228 387.353 58.3668 387.655 58.9491 387.443Z" fill="#FBC02D"/>
<path d="M24.4913 367.55C24.6009 368.159 25.1832 368.57 25.7929 368.461C26.4026 368.351 26.8137 367.769 26.7041 367.159C26.5945 366.549 26.0122 366.138 25.4025 366.248C24.7928 366.358 24.3817 366.94 24.4913 367.55Z" fill="#FBC02D"/>
<path d="M34.7736 425.879C34.8832 426.489 35.4655 426.9 36.0752 426.79C36.6849 426.681 37.0959 426.098 36.9863 425.489C36.8767 424.879 36.2944 424.468 35.6847 424.578C35.075 424.687 34.664 425.27 34.7736 425.879Z" fill="#FBC02D"/>
<path d="M1.76755 402.767C2.37725 402.657 2.78828 402.075 2.67868 401.465C2.56907 400.855 1.98677 400.444 1.37707 400.554C0.767369 400.664 0.356335 401.246 0.465944 401.856C0.575553 402.465 1.15785 402.876 1.76755 402.767Z" fill="#FBC02D"/>
<path d="M60.0927 392.484C60.7024 392.375 61.1135 391.792 61.0039 391.183C60.8943 390.573 60.312 390.162 59.7023 390.272C59.0926 390.381 58.6815 390.964 58.7911 391.573C58.9007 392.183 59.483 392.594 60.0927 392.484Z" fill="#FBC02D"/>
<path d="M128.702 99.4859C129.318 99.4859 129.811 98.9859 129.811 98.3762C129.811 97.7665 129.311 97.2665 128.702 97.2665C128.092 97.2665 127.592 97.7665 127.592 98.3762C127.592 98.9859 128.092 99.4859 128.702 99.4859Z" fill="#26C6DA"/>
<path d="M133.257 99.4859C133.874 99.4859 134.367 98.9859 134.367 98.3762C134.367 97.7665 133.867 97.2665 133.257 97.2665C132.648 97.2665 132.147 97.7665 132.147 98.3762C132.147 98.9859 132.648 99.4859 133.257 99.4859Z" fill="#26C6DA"/>
<path d="M137.813 99.4859C138.429 99.4859 138.923 98.9859 138.923 98.3762C138.923 97.7665 138.423 97.2665 137.813 97.2665C137.203 97.2665 136.703 97.7665 136.703 98.3762C136.703 98.9859 137.203 99.4859 137.813 99.4859Z" fill="#26C6DA"/>
<path d="M124.146 99.4859C124.762 99.4859 125.256 98.9859 125.256 98.3762C125.256 97.7665 124.756 97.2665 124.146 97.2665C123.536 97.2665 123.036 97.7665 123.036 98.3762C123.036 98.9859 123.536 99.4859 124.146 99.4859Z" fill="#26C6DA"/>
<path d="M142.369 99.4859C142.985 99.4859 143.478 98.9859 143.478 98.3762C143.478 97.7665 142.978 97.2665 142.369 97.2665C141.759 97.2665 141.259 97.7665 141.259 98.3762C141.259 98.9859 141.759 99.4859 142.369 99.4859Z" fill="#26C6DA"/>
<path d="M146.924 99.4859C147.541 99.4859 148.034 98.9859 148.034 98.3762C148.034 97.7665 147.534 97.2665 146.924 97.2665C146.315 97.2665 145.814 97.7665 145.814 98.3762C145.814 98.9859 146.315 99.4859 146.924 99.4859Z" fill="#26C6DA"/>
<path d="M151.48 99.4859C152.096 99.4859 152.59 98.9859 152.59 98.3762C152.59 97.7665 152.09 97.2665 151.48 97.2665C150.87 97.2665 150.37 97.7665 150.37 98.3762C150.37 98.9859 150.87 99.4859 151.48 99.4859Z" fill="#26C6DA"/>
<path d="M156.042 99.486C156.659 99.486 157.152 98.9859 157.152 98.3763C157.152 97.7666 156.652 97.2665 156.042 97.2665C155.433 97.2665 154.933 97.7666 154.933 98.3763C154.933 98.9859 155.433 99.486 156.042 99.486Z" fill="#26C6DA"/>
<path d="M160.598 99.486C161.215 99.486 161.708 98.9859 161.708 98.3763C161.708 97.7666 161.208 97.2665 160.598 97.2665C159.988 97.2665 159.488 97.7666 159.488 98.3763C159.488 98.9859 159.988 99.486 160.598 99.486Z" fill="#26C6DA"/>
<path d="M195.269 72.2015C180.814 72.2015 169.093 83.9222 169.093 98.3762C169.093 112.83 180.814 124.551 195.269 124.551C209.723 124.551 221.445 112.83 221.445 98.3762C221.445 83.9222 209.723 72.2015 195.269 72.2015Z" fill="#26C6DA"/>
<path d="M226 98.3762C226 98.9967 225.497 99.4997 224.876 99.4997C224.256 99.4997 223.753 98.9967 223.753 98.3762C223.753 97.7558 224.256 97.2528 224.876 97.2528C225.497 97.2528 226 97.7558 226 98.3762Z" fill="#26C6DA"/>
<path d="M165.654 97.2528C165.037 97.2528 164.53 97.7529 164.53 98.3762C164.53 98.9996 165.03 99.4997 165.654 99.4997C166.277 99.4997 166.777 98.9996 166.777 98.3762C166.777 97.7529 166.277 97.2528 165.654 97.2528Z" fill="#26C6DA"/>
<path d="M194.146 68.7627C194.146 69.386 194.646 69.8861 195.269 69.8861C195.892 69.8861 196.392 69.386 196.392 68.7627C196.392 68.1393 195.892 67.6392 195.269 67.6392C194.646 67.6392 194.146 68.1393 194.146 68.7627Z" fill="#26C6DA"/>
<path d="M194.146 127.99C194.146 128.613 194.646 129.113 195.269 129.113C195.892 129.113 196.392 128.613 196.392 127.99C196.392 127.366 195.892 126.866 195.269 126.866C194.646 126.866 194.146 127.366 194.146 127.99Z" fill="#26C6DA"/>
<path d="M224.623 102.411C224.013 102.301 223.431 102.712 223.321 103.322C223.212 103.932 223.623 104.514 224.233 104.624C224.842 104.733 225.425 104.322 225.534 103.713C225.644 103.103 225.233 102.521 224.623 102.411Z" fill="#26C6DA"/>
<path d="M166.298 92.1288C165.688 92.0192 165.106 92.4303 164.996 93.0399C164.887 93.6496 165.298 94.2319 165.907 94.3415C166.517 94.4511 167.099 94.0401 167.209 93.4304C167.319 92.8207 166.908 92.2384 166.298 92.1288Z" fill="#26C6DA"/>
<path d="M199.304 69.0161C199.194 69.6258 199.605 70.2081 200.215 70.3177C200.825 70.4273 201.407 70.0163 201.517 69.4066C201.626 68.7969 201.215 68.2146 200.605 68.105C199.996 67.9954 199.413 68.4065 199.304 69.0161Z" fill="#26C6DA"/>
<path d="M189.022 127.339C188.912 127.949 189.323 128.531 189.933 128.641C190.542 128.75 191.125 128.339 191.234 127.73C191.344 127.12 190.933 126.538 190.323 126.428C189.714 126.318 189.131 126.729 189.022 127.339Z" fill="#26C6DA"/>
<path d="M223.479 107.446C222.897 107.234 222.253 107.535 222.041 108.117C221.828 108.7 222.13 109.343 222.712 109.556C223.294 109.768 223.938 109.467 224.151 108.885C224.363 108.302 224.062 107.658 223.479 107.446Z" fill="#26C6DA"/>
<path d="M167.825 87.1898C167.243 86.9775 166.599 87.2789 166.386 87.8611C166.174 88.4434 166.475 89.0873 167.058 89.2997C167.64 89.512 168.284 89.2106 168.496 88.6284C168.709 88.0461 168.407 87.4022 167.825 87.1898Z" fill="#26C6DA"/>
<path d="M204.339 70.167C204.126 70.7493 204.428 71.3932 205.01 71.6055C205.592 71.8179 206.236 71.5165 206.449 70.9342C206.661 70.3519 206.359 69.708 205.777 69.4957C205.195 69.2833 204.551 69.5847 204.339 70.167Z" fill="#26C6DA"/>
<path d="M184.082 125.818C183.869 126.401 184.171 127.044 184.753 127.257C185.335 127.469 185.979 127.168 186.192 126.586C186.404 126.003 186.103 125.359 185.52 125.147C184.938 124.935 184.294 125.236 184.082 125.818Z" fill="#26C6DA"/>
<path d="M221.472 112.207C220.938 111.899 220.246 112.084 219.937 112.618C219.629 113.152 219.814 113.844 220.348 114.152C220.883 114.461 221.575 114.276 221.883 113.741C222.191 113.207 222.006 112.515 221.472 112.207Z" fill="#26C6DA"/>
<path d="M170.182 82.6001C169.647 82.2919 168.956 82.4768 168.647 83.0112C168.339 83.5455 168.524 84.2374 169.058 84.5456C169.593 84.8539 170.285 84.6689 170.593 84.1346C170.901 83.6003 170.716 82.9084 170.182 82.6001Z" fill="#26C6DA"/>
<path d="M209.1 72.1672C208.792 72.7015 208.977 73.3934 209.511 73.7017C210.046 74.0099 210.738 73.825 211.046 73.2907C211.354 72.7563 211.169 72.0645 210.635 71.7562C210.101 71.448 209.409 71.6329 209.1 72.1672Z" fill="#26C6DA"/>
<path d="M179.485 123.462C179.177 123.996 179.362 124.688 179.896 124.996C180.431 125.304 181.122 125.12 181.431 124.585C181.739 124.051 181.554 123.359 181.02 123.051C180.485 122.743 179.793 122.927 179.485 123.462Z" fill="#26C6DA"/>
<path d="M218.67 116.55C218.197 116.153 217.485 116.214 217.087 116.687C216.69 117.16 216.752 117.872 217.224 118.269C217.697 118.667 218.409 118.605 218.807 118.132C219.204 117.66 219.142 116.947 218.67 116.55Z" fill="#26C6DA"/>
<path d="M173.299 78.4832C172.826 78.0859 172.113 78.1475 171.716 78.6202C171.319 79.0928 171.38 79.8053 171.853 80.2026C172.326 80.5999 173.038 80.5382 173.436 80.0656C173.833 79.5929 173.771 78.8805 173.299 78.4832Z" fill="#26C6DA"/>
<path d="M213.443 74.969C213.045 75.4417 213.107 76.1541 213.58 76.5514C214.052 76.9487 214.765 76.8871 215.162 76.4144C215.559 75.9417 215.498 75.2293 215.025 74.832C214.552 74.4347 213.84 74.4963 213.443 74.969Z" fill="#26C6DA"/>
<path d="M175.367 120.338C174.97 120.811 175.032 121.523 175.504 121.921C175.977 122.318 176.69 122.256 177.087 121.784C177.484 121.311 177.423 120.598 176.95 120.201C176.477 119.804 175.765 119.865 175.367 120.338Z" fill="#26C6DA"/>
<path d="M215.162 120.338C214.765 119.865 214.052 119.804 213.58 120.201C213.107 120.598 213.045 121.311 213.443 121.784C213.84 122.256 214.552 122.318 215.025 121.921C215.498 121.523 215.559 120.811 215.162 120.338Z" fill="#26C6DA"/>
<path d="M177.087 74.969C176.69 74.4963 175.977 74.4347 175.504 74.832C175.032 75.2293 174.97 75.9417 175.367 76.4144C175.765 76.8871 176.477 76.9487 176.95 76.5514C177.423 76.1541 177.484 75.4417 177.087 74.969Z" fill="#26C6DA"/>
<path d="M217.231 78.4832C216.758 78.8805 216.697 79.5929 217.094 80.0656C217.491 80.5382 218.204 80.5999 218.677 80.2026C219.149 79.8053 219.211 79.0928 218.814 78.6202C218.416 78.1475 217.704 78.0859 217.231 78.4832Z" fill="#26C6DA"/>
<path d="M171.86 116.55C171.387 116.947 171.326 117.66 171.723 118.132C172.12 118.605 172.833 118.667 173.305 118.269C173.778 117.872 173.84 117.16 173.442 116.687C173.045 116.214 172.333 116.153 171.86 116.55Z" fill="#26C6DA"/>
<path d="M211.046 123.462C210.738 122.927 210.053 122.743 209.511 123.051C208.977 123.359 208.792 124.044 209.1 124.585C209.409 125.12 210.101 125.304 210.635 124.996C211.169 124.688 211.354 124.003 211.046 123.462Z" fill="#26C6DA"/>
<path d="M181.431 72.1672C181.122 71.6329 180.437 71.448 179.896 71.7562C179.362 72.0645 179.177 72.7563 179.485 73.2907C179.793 73.825 180.478 74.0099 181.02 73.7017C181.554 73.3934 181.739 72.7084 181.431 72.1672Z" fill="#26C6DA"/>
<path d="M220.348 82.6001C219.814 82.9084 219.629 83.6003 219.937 84.1346C220.246 84.6689 220.931 84.8539 221.472 84.5456C222.006 84.2374 222.191 83.5523 221.883 83.0112C221.575 82.4768 220.89 82.2919 220.348 82.6001Z" fill="#26C6DA"/>
<path d="M169.058 112.207C168.524 112.515 168.339 113.2 168.647 113.741C168.956 114.276 169.641 114.461 170.182 114.152C170.716 113.844 170.901 113.152 170.593 112.618C170.285 112.084 169.593 111.899 169.058 112.207Z" fill="#26C6DA"/>
<path d="M206.449 125.818C206.236 125.236 205.592 124.935 205.01 125.147C204.428 125.359 204.126 126.003 204.339 126.586C204.551 127.168 205.195 127.469 205.777 127.257C206.359 127.044 206.661 126.401 206.449 125.818Z" fill="#26C6DA"/>
<path d="M186.192 70.167C185.979 69.5847 185.335 69.2833 184.753 69.4957C184.171 69.708 183.869 70.3519 184.082 70.9342C184.294 71.5165 184.938 71.8179 185.52 71.6055C186.103 71.3932 186.404 70.7493 186.192 70.167Z" fill="#26C6DA"/>
<path d="M222.712 87.1898C222.13 87.4022 221.828 88.0461 222.041 88.6284C222.253 89.2106 222.897 89.512 223.479 89.2997C224.062 89.0873 224.363 88.4434 224.151 87.8611C223.938 87.2789 223.294 86.9775 222.712 87.1898Z" fill="#26C6DA"/>
<path d="M167.051 107.446C166.469 107.658 166.167 108.302 166.38 108.885C166.592 109.467 167.236 109.768 167.818 109.556C168.4 109.343 168.702 108.7 168.49 108.117C168.277 107.535 167.633 107.234 167.051 107.446Z" fill="#26C6DA"/>
<path d="M201.516 127.339C201.406 126.729 200.824 126.318 200.214 126.428C199.604 126.538 199.193 127.12 199.303 127.729C199.412 128.339 199.995 128.75 200.604 128.641C201.214 128.531 201.625 127.949 201.516 127.339Z" fill="#26C6DA"/>
<path d="M191.227 69.0161C191.117 68.4065 190.535 67.9954 189.925 68.105C189.315 68.2146 188.904 68.7969 189.014 69.4066C189.123 70.0163 189.706 70.4273 190.315 70.3177C190.925 70.2081 191.336 69.6258 191.227 69.0161Z" fill="#26C6DA"/>
<path d="M224.233 92.1288C223.623 92.2384 223.212 92.8207 223.321 93.4304C223.431 94.0401 224.013 94.4511 224.623 94.3415C225.233 94.2319 225.644 93.6496 225.534 93.0399C225.425 92.4303 224.842 92.0192 224.233 92.1288Z" fill="#26C6DA"/>
<path d="M165.907 102.411C165.298 102.521 164.887 103.103 164.996 103.713C165.106 104.322 165.688 104.733 166.298 104.624C166.908 104.514 167.319 103.932 167.209 103.322C167.099 102.712 166.517 102.301 165.907 102.411Z" fill="#26C6DA"/>
<path d="M30.7385 181.709C16.2838 181.709 4.5625 193.43 4.5625 207.884C4.5625 222.338 16.2838 234.059 30.7385 234.059C45.1932 234.059 56.9145 222.338 56.9145 207.884C56.9145 193.43 45.1932 181.709 30.7385 181.709Z" fill="#388E3C"/>
<path d="M60.3461 206.768C59.7296 206.768 59.2227 207.268 59.2227 207.891C59.2227 208.514 59.7227 209.014 60.3461 209.014C60.9695 209.014 61.4696 208.514 61.4696 207.891C61.4696 207.268 60.9695 206.768 60.3461 206.768Z" fill="#388E3C"/>
<path d="M1.12349 206.768C0.500091 206.768 2.18591e-08 207.268 4.91075e-08 207.891C7.63559e-08 208.514 0.500091 209.014 1.12349 209.014C1.74689 209.014 2.24698 208.514 2.24698 207.891C2.24698 207.268 1.74689 206.768 1.12349 206.768Z" fill="#388E3C"/>
<path d="M29.6152 178.277C29.6152 178.901 30.1153 179.401 30.7387 179.401C31.3621 179.401 31.8622 178.901 31.8622 178.277C31.8622 177.654 31.3621 177.154 30.7387 177.154C30.1153 177.154 29.6152 177.654 29.6152 178.277Z" fill="#388E3C"/>
<path d="M29.6152 237.498C29.6152 238.114 30.1153 238.621 30.7387 238.621C31.3621 238.621 31.8622 238.121 31.8622 237.498C31.8622 236.874 31.3621 236.374 30.7387 236.374C30.1153 236.374 29.6152 236.874 29.6152 237.498Z" fill="#388E3C"/>
<path d="M60.0927 211.926C59.483 211.816 58.9007 212.227 58.7911 212.837C58.6815 213.446 59.0926 214.029 59.7023 214.138C60.312 214.248 60.8943 213.837 61.0039 213.227C61.1135 212.618 60.7024 212.035 60.0927 211.926Z" fill="#388E3C"/>
<path d="M1.76755 201.643C1.15785 201.534 0.575553 201.945 0.465944 202.555C0.356335 203.164 0.767369 203.747 1.37707 203.856C1.98677 203.966 2.56907 203.555 2.67868 202.945C2.78828 202.335 2.37725 201.753 1.76755 201.643Z" fill="#388E3C"/>
<path d="M34.7736 178.531C34.664 179.14 35.075 179.723 35.6847 179.832C36.2944 179.942 36.8767 179.531 36.9863 178.921C37.0959 178.312 36.6849 177.729 36.0752 177.62C35.4655 177.51 34.8832 177.921 34.7736 178.531Z" fill="#388E3C"/>
<path d="M24.4913 236.854C24.3817 237.463 24.7928 238.046 25.4025 238.155C26.0122 238.265 26.5945 237.854 26.7041 237.244C26.8137 236.634 26.4026 236.052 25.7929 235.943C25.1832 235.833 24.6009 236.244 24.4913 236.854Z" fill="#388E3C"/>
<path d="M58.9491 216.961C58.3668 216.748 57.7228 217.05 57.5104 217.632C57.2981 218.214 57.5995 218.858 58.1818 219.071C58.7641 219.283 59.408 218.982 59.6204 218.399C59.8328 217.817 59.5314 217.173 58.9491 216.961Z" fill="#388E3C"/>
<path d="M3.29475 196.705C2.71246 196.492 2.0685 196.794 1.85614 197.376C1.64377 197.958 1.94519 198.602 2.52749 198.814C3.10979 199.027 3.75374 198.725 3.96611 198.143C4.17848 197.561 3.87705 196.917 3.29475 196.705Z" fill="#388E3C"/>
<path d="M39.8083 179.675C39.5959 180.257 39.8973 180.901 40.4796 181.113C41.0619 181.326 41.7059 181.024 41.9183 180.442C42.1306 179.86 41.8292 179.216 41.2469 179.004C40.6646 178.791 40.0207 179.093 39.8083 179.675Z" fill="#388E3C"/>
<path d="M19.5514 235.333C19.3391 235.915 19.6405 236.559 20.2228 236.772C20.8051 236.984 21.4491 236.682 21.6614 236.1C21.8738 235.518 21.5724 234.874 20.9901 234.662C20.4078 234.449 19.7638 234.751 19.5514 235.333Z" fill="#388E3C"/>
<path d="M56.9416 221.722C56.4072 221.413 55.7153 221.598 55.407 222.133C55.0988 222.667 55.2837 223.359 55.8181 223.667C56.3524 223.975 57.0443 223.79 57.3526 223.256C57.6609 222.722 57.4759 222.03 56.9416 221.722Z" fill="#388E3C"/>
<path d="M5.65152 192.108C5.11718 191.8 4.42527 191.985 4.117 192.519C3.80872 193.053 3.99369 193.745 4.52803 194.053C5.06238 194.362 5.75428 194.177 6.06256 193.642C6.37083 193.108 6.18587 192.416 5.65152 192.108Z" fill="#388E3C"/>
<path d="M44.5701 181.682C44.2618 182.216 44.4468 182.908 44.9812 183.216C45.5155 183.525 46.2074 183.34 46.5157 182.805C46.824 182.271 46.639 181.579 46.1047 181.271C45.5703 180.963 44.8784 181.148 44.5701 181.682Z" fill="#388E3C"/>
<path d="M14.9549 232.97C14.6466 233.504 14.8316 234.196 15.3659 234.504C15.9003 234.812 16.5922 234.627 16.9004 234.093C17.2087 233.559 17.0238 232.867 16.4894 232.559C15.9551 232.25 15.2632 232.435 14.9549 232.97Z" fill="#388E3C"/>
<path d="M54.1394 226.065C53.6667 225.667 52.9543 225.729 52.5569 226.202C52.1596 226.674 52.2212 227.387 52.6939 227.784C53.1666 228.181 53.8791 228.12 54.2764 227.647C54.6737 227.174 54.6121 226.462 54.1394 226.065Z" fill="#388E3C"/>
<path d="M8.77514 187.991C8.30245 187.594 7.58999 187.655 7.19266 188.128C6.79533 188.601 6.85698 189.313 7.32967 189.71C7.80236 190.108 8.51482 190.046 8.91215 189.573C9.30948 189.101 9.24783 188.388 8.77514 187.991Z" fill="#388E3C"/>
<path d="M48.9124 184.484C48.5151 184.956 48.5767 185.669 49.0494 186.066C49.5221 186.463 50.2345 186.402 50.6319 185.929C51.0292 185.456 50.9676 184.744 50.4949 184.347C50.0222 183.949 49.3097 184.011 48.9124 184.484Z" fill="#388E3C"/>
<path d="M10.844 229.853C10.4467 230.326 10.5084 231.038 10.981 231.435C11.4537 231.833 12.1662 231.771 12.5635 231.298C12.9609 230.826 12.8992 230.113 12.4265 229.716C11.9538 229.319 11.2414 229.38 10.844 229.853Z" fill="#388E3C"/>
<path d="M50.6319 229.853C50.2345 229.38 49.5221 229.319 49.0494 229.716C48.5767 230.113 48.5151 230.826 48.9124 231.298C49.3097 231.771 50.0222 231.833 50.4949 231.435C50.9676 231.038 51.0292 230.326 50.6319 229.853Z" fill="#388E3C"/>
<path d="M12.5567 184.484C12.1593 184.011 11.4469 183.949 10.9742 184.347C10.5015 184.744 10.4399 185.456 10.8372 185.929C11.2345 186.402 11.947 186.463 12.4197 186.066C12.8924 185.669 12.954 184.956 12.5567 184.484Z" fill="#388E3C"/>
<path d="M52.7008 187.991C52.2281 188.388 52.1664 189.101 52.5638 189.573C52.9611 190.046 53.6735 190.108 54.1462 189.71C54.6189 189.313 54.6806 188.601 54.2832 188.128C53.8859 187.655 53.1735 187.594 52.7008 187.991Z" fill="#388E3C"/>
<path d="M7.32967 226.065C6.85698 226.462 6.79533 227.174 7.19266 227.647C7.58999 228.12 8.30245 228.181 8.77514 227.784C9.24783 227.387 9.30948 226.674 8.91215 226.202C8.51482 225.729 7.80236 225.667 7.32967 226.065Z" fill="#388E3C"/>
<path d="M46.5157 232.97C46.2074 232.435 45.5224 232.25 44.9812 232.559C44.4468 232.867 44.2618 233.552 44.5701 234.093C44.8784 234.627 45.5635 234.812 46.1047 234.504C46.639 234.196 46.824 233.511 46.5157 232.97Z" fill="#388E3C"/>
<path d="M16.9004 181.682C16.5922 181.148 15.9003 180.963 15.3659 181.271C14.8316 181.579 14.6466 182.271 14.9549 182.805C15.2632 183.34 15.9551 183.525 16.4894 183.216C17.0238 182.908 17.2087 182.216 16.9004 181.682Z" fill="#388E3C"/>
<path d="M55.8181 192.108C55.2837 192.416 55.0988 193.101 55.407 193.642C55.7153 194.177 56.4072 194.362 56.9416 194.053C57.4759 193.745 57.6609 193.06 57.3526 192.519C57.0443 191.985 56.3593 191.8 55.8181 192.108Z" fill="#388E3C"/>
<path d="M4.52803 221.722C3.99369 222.03 3.80872 222.722 4.117 223.256C4.42527 223.79 5.11033 223.975 5.65152 223.667C6.18587 223.359 6.37083 222.674 6.06256 222.133C5.75428 221.598 5.06923 221.413 4.52803 221.722Z" fill="#388E3C"/>
<path d="M41.9183 235.333C41.7059 234.751 41.0619 234.449 40.4796 234.662C39.8973 234.874 39.5959 235.518 39.8083 236.1C40.0207 236.682 40.6646 236.984 41.2469 236.772C41.8292 236.559 42.1306 235.915 41.9183 235.333Z" fill="#388E3C"/>
<path d="M21.6614 179.675C21.4491 179.093 20.8051 178.791 20.2228 179.004C19.6405 179.216 19.3391 179.86 19.5514 180.442C19.7638 181.024 20.4078 181.326 20.9901 181.113C21.5724 180.901 21.8738 180.257 21.6614 179.675Z" fill="#388E3C"/>
<path d="M58.1818 196.705C57.5995 196.917 57.2981 197.561 57.5104 198.143C57.7228 198.725 58.3668 199.027 58.9491 198.814C59.5314 198.602 59.8328 197.958 59.6204 197.376C59.408 196.794 58.7641 196.492 58.1818 196.705Z" fill="#388E3C"/>
<path d="M2.52065 216.961C1.93836 217.173 1.63693 217.817 1.8493 218.399C2.06167 218.982 2.70562 219.283 3.28792 219.071C3.87022 218.858 4.17164 218.214 3.95927 217.632C3.7469 217.05 3.10295 216.748 2.52065 216.961Z" fill="#388E3C"/>
<path d="M36.9863 236.854C36.8767 236.244 36.2944 235.833 35.6847 235.943C35.075 236.052 34.664 236.634 34.7736 237.244C34.8832 237.854 35.4655 238.265 36.0752 238.155C36.6849 238.046 37.0959 237.463 36.9863 236.854Z" fill="#388E3C"/>
<path d="M26.6972 178.531C26.5876 177.921 26.0053 177.51 25.3956 177.62C24.7859 177.729 24.3749 178.312 24.4845 178.921C24.5941 179.531 25.1764 179.942 25.7861 179.832C26.3958 179.723 26.8068 179.14 26.6972 178.531Z" fill="#388E3C"/>
<path d="M59.7023 201.643C59.0926 201.753 58.6815 202.335 58.7911 202.945C58.9007 203.555 59.483 203.966 60.0927 203.856C60.7024 203.747 61.1135 203.164 61.0039 202.555C60.8943 201.945 60.312 201.534 59.7023 201.643Z" fill="#388E3C"/>
<path d="M1.37707 211.926C0.767369 212.035 0.356335 212.618 0.465944 213.227C0.575553 213.837 1.15785 214.248 1.76755 214.138C2.37725 214.029 2.78828 213.446 2.67868 212.837C2.56907 212.227 1.98677 211.816 1.37707 211.926Z" fill="#388E3C"/>
<path d="M218.019 312.946C218.019 300.403 207.812 290.197 195.268 290.197C182.725 290.197 172.518 300.403 172.518 312.946C172.518 325.489 182.725 335.696 195.268 335.696C207.812 335.696 218.019 325.489 218.019 312.946Z" fill="white"/>
<path d="M53.4887 30.737C53.4887 18.1942 43.2814 7.98736 30.738 7.98736C18.1947 7.98737 7.98047 18.1874 7.98047 30.737C7.98047 43.2866 18.1878 53.4866 30.7312 53.4866C43.2746 53.4866 53.4819 43.2798 53.4819 30.737L53.4887 30.737Z" fill="white"/>
<path d="M53.4887 396.519C53.4887 383.976 43.2814 373.769 30.738 373.769C18.1946 373.769 7.98731 383.976 7.98731 396.519C7.98731 409.062 18.1946 419.269 30.738 419.269C43.2814 419.269 53.4887 409.062 53.4887 396.519Z" fill="white"/>
<path d="M218.019 98.3763C218.019 85.8335 207.812 75.6266 195.268 75.6266C182.725 75.6266 172.518 85.8335 172.518 98.3763C172.518 110.919 182.725 121.126 195.268 121.126C207.812 121.126 218.019 110.919 218.019 98.3763Z" fill="white"/>
<path d="M53.4887 207.891C53.4887 195.348 43.2814 185.141 30.738 185.141C18.1946 185.141 7.98731 195.348 7.98731 207.891C7.98731 220.434 18.1946 230.641 30.738 230.641C43.2814 230.641 53.4887 220.434 53.4887 207.891Z" fill="white"/>
<path d="M119.705 397.097C119.705 393.359 116.705 390.339 113.011 390.339C109.318 390.339 106.318 393.359 106.318 397.097C106.318 400.834 109.318 403.855 113.011 403.855C116.705 403.855 119.705 400.834 119.705 397.097Z" fill="#FCDC00" stroke="#F4511E"/>
<path d="M113.027 91.0739C112.575 91.0739 112.144 91.1219 111.712 91.1972L111.712 37.6284C108.307 37.0118 105.725 34.032 105.725 30.4562C105.725 26.4282 108.992 23.1538 113.027 23.1538C117.062 23.1538 120.33 26.4214 120.33 30.4562C120.33 33.9703 117.843 36.9091 114.534 37.601L114.534 91.2383C114.048 91.1356 113.548 91.0808 113.034 91.0808L113.027 91.0739ZM117.412 30.4493C117.412 28.0312 115.452 26.072 113.034 26.072C110.616 26.072 108.657 28.0312 108.657 30.4493C108.657 32.8674 110.616 34.8266 113.034 34.8266C115.452 34.8266 117.412 32.8674 117.412 30.4493Z" fill="#1976D2"/>
<path d="M18.3875 390.738C18.6067 384.607 23.1621 379.366 29.6904 379.291C36.2256 379.222 40.8906 384.367 41.2536 390.485C41.6783 397.719 35.472 399.801 33.8485 406.275L26.1351 406.364C24.3883 399.993 18.1204 397.911 18.3875 390.738Z" fill="#FCDC00"/>
<path d="M33.2662 387.059C33.273 388.012 34.054 388.779 35.0062 388.772C35.9515 388.765 36.7187 387.984 36.7119 387.032C36.705 386.08 35.9241 385.319 34.9719 385.326C34.0197 385.333 33.2525 386.114 33.2593 387.066L33.2662 387.059Z" fill="white"/>
<path d="M34.7149 406.295L34.7363 408.796L25.2628 408.877L25.2414 406.376L34.7149 406.295Z" fill="#5E5A5C"/>
<path d="M34.0879 408.276L32.9782 412.591L27.039 412.639L25.8539 408.344L34.0879 408.276Z" fill="#5E5A5C"/>
<path d="M30.0361 36.4538L32.8652 36.4538L32.8652 38.8241L30.0361 38.8241L30.0361 36.4538Z" fill="#222324"/>
<path d="M19.7471 25.3627C19.7471 31.8228 24.9875 37.0635 31.4473 37.0635C37.907 37.0635 43.1475 31.8228 43.1475 25.3627C43.1475 18.9027 37.907 13.662 31.4473 13.662C24.9875 13.662 19.7471 18.9027 19.7471 25.3627Z" fill="#353535"/>
<path d="M24.72 18.6355L38.1807 32.0968C39.9001 30.3773 40.9687 27.9934 40.9687 25.3696C40.9687 20.1152 36.7079 15.8542 31.4538 15.8542C28.8233 15.8542 26.4462 16.9228 24.7268 18.6423L24.72 18.6355Z" fill="#53CEEA"/>
<path d="M21.9319 25.3696C21.9319 30.624 26.1928 34.885 31.4469 34.885C34.0774 34.885 36.4544 33.8232 38.1738 32.0969L24.7131 18.6355C22.9937 20.355 21.9251 22.739 21.9251 25.3627L21.9319 25.3696Z" fill="#17BEE5"/>
<path d="M31.4469 38.8241L31.4469 46.8941C32.4744 46.9009 33.4951 46.2707 33.4951 44.969L33.4951 38.8241L31.4469 38.8241Z" fill="#FF5122"/>
<path d="M29.399 38.8241L29.399 44.969C29.399 46.2296 30.4266 46.8804 31.4473 46.8941L31.4473 38.8241L29.399 38.8241Z" fill="#EA3207"/>
<path d="M37.3655 24.664C37.0504 21.9375 34.8789 19.7658 32.1525 19.4507C31.1386 19.3342 31.3236 17.7997 32.3374 17.9162C35.7694 18.3135 38.5026 21.0469 38.8999 24.479C39.0164 25.4929 37.4819 25.671 37.3655 24.664Z" fill="#FDFDFD"/>
<path d="M201.458 326.768C202.451 328.693 205.308 327.172 204.335 325.281L202.417 321.568C201.431 319.664 198.554 321.15 199.54 323.055L201.458 326.768Z" fill="#1299DD"/>
<path d="M189.052 326.768C188.059 328.693 185.202 327.172 186.175 325.281L188.093 321.568C189.079 319.664 191.956 321.15 190.97 323.055L189.052 326.768Z" fill="#1299DD"/>
<path d="M185.668 316.115C185.668 321.411 189.956 325.706 195.251 325.706C200.547 325.706 204.842 321.411 204.842 316.115C204.842 310.82 200.554 306.531 195.251 306.531C189.949 306.531 185.668 310.827 185.668 316.115Z" fill="#85EEFF"/>
<path d="M192.875 301.893L193.656 303.565L196.848 303.565L197.629 301.893L198.629 301.893L197.423 304.469L193.073 304.469L191.868 301.893L192.868 301.893L192.875 301.893Z" fill="#2D2D2D"/>
<path d="M185.208 303.583L188.87 307.244L187.369 308.746L183.706 305.085L185.208 303.583Z" fill="#4D4F50"/>
<path d="M185.391 302.277L186.893 303.778L183.845 306.825L182.344 305.323L185.391 302.277Z" fill="#2D2D2D"/>
<path d="M205.308 303.612L206.81 305.114L203.147 308.775L201.646 307.273L205.308 303.612Z" fill="#4D4F50"/>
<path d="M205.111 302.258L208.158 305.305L206.657 306.807L203.61 303.76L205.111 302.258Z" fill="#2D2D2D"/>
<path d="M198.923 298.345L191.587 298.345C190.915 298.345 190.374 298.893 190.374 299.557L190.374 300.859C190.374 301.53 190.922 302.078 191.593 302.078L198.93 302.078C199.601 302.078 200.149 301.53 200.149 300.859L200.149 299.564C200.149 298.893 199.601 298.345 198.93 298.345L198.923 298.345Z" fill="#E20707"/>
<path d="M194.854 314.855L195.69 315.437L198.731 311.005L198.807 309.991L197.889 310.422L194.854 314.855Z" fill="#2D2D2D"/>
<path d="M195.286 315.821L195.286 314.608L191.58 314.608L190.546 315.211L191.58 315.821L195.286 315.821Z" fill="#064EB7"/>
<path d="M194.265 315.108C194.238 315.677 194.676 316.15 195.238 316.177C195.806 316.204 196.279 315.766 196.313 315.204C196.341 314.642 195.902 314.163 195.34 314.135C194.779 314.108 194.299 314.547 194.272 315.108L194.265 315.108Z" fill="#302C2A"/>
<path d="M194.786 305.846L195.786 305.846L195.786 307.641L194.786 307.641L194.786 305.846Z" fill="#4D4F50"/>
<path d="M202.808 314.663L204.603 314.663L204.603 315.663L202.808 315.663L202.808 314.663Z" fill="#4D4F50"/>
<path d="M194.786 322.678L195.786 322.678L195.786 324.473L194.786 324.473L194.786 322.678Z" fill="#4D4F50"/>
<path d="M185.977 314.663L187.771 314.663L187.771 315.663L185.977 315.663L185.977 314.663Z" fill="#4D4F50"/>
<path d="M195.258 303.264C201.828 303.264 207.15 308.587 207.15 315.156C207.15 321.726 201.828 327.049 195.258 327.049C188.689 327.049 183.366 321.726 183.366 315.156C183.366 308.587 188.689 303.264 195.258 303.264ZM195.258 323.411C199.814 323.411 203.506 319.719 203.506 315.163C203.506 310.607 199.814 306.915 195.258 306.915C190.703 306.915 187.011 310.607 187.011 315.163C187.011 319.719 190.703 323.411 195.258 323.411Z" fill="#FF3000"/>
<path d="M178.317 89.6257L209.561 89.6257L209.561 111.65L178.317 111.65L178.317 89.6257Z" fill="#34B5E8"/>
<path d="M181.399 91.4617L185.495 91.4617L185.495 95.0103L181.399 95.0103L181.399 91.4617Z" fill="#3A3A3A"/>
<path d="M184.673 92.7839L184.673 87.461C184.673 85.7552 182.214 85.8922 182.214 87.461L182.214 92.7839C182.214 94.3526 184.673 94.4897 184.673 92.7839Z" fill="#FFE02C"/>
<path d="M188.393 91.4617L192.489 91.4617L192.489 95.0103L188.393 95.0103L188.393 91.4617Z" fill="#3A3A3A"/>
<path d="M191.667 92.7839L191.667 87.461C191.667 85.7552 189.208 85.8922 189.208 87.461L189.208 92.7839C189.208 94.3526 191.667 94.4897 191.667 92.7839Z" fill="#FFE02C"/>
<path d="M195.387 91.4617L199.483 91.4617L199.483 95.0103L195.387 95.0103L195.387 91.4617Z" fill="#3A3A3A"/>
<path d="M198.661 92.7839L198.661 87.461C198.661 85.7552 196.202 85.8922 196.202 87.461L196.202 92.7839C196.202 94.3526 198.661 94.4897 198.661 92.7839Z" fill="#FFE02C"/>
<path d="M202.381 91.4617L206.478 91.4617L206.478 95.0103L202.381 95.0103L202.381 91.4617Z" fill="#3A3A3A"/>
<path d="M205.655 92.7839L205.655 87.461C205.655 85.7552 203.196 85.8922 203.196 87.461L203.196 92.7839C203.196 94.3526 205.655 94.4897 205.655 92.7839Z" fill="#FFE02C"/>
<path d="M14.2637 212.988L14.2637 219.194C14.2637 220.29 15.1542 221.181 16.2502 221.181L41.2878 221.181C42.3839 221.181 43.2744 220.297 43.2744 219.194L43.2744 212.988L14.2705 212.988L14.2637 212.988Z" fill="#232222"/>
<path d="M33.0401 197.978L34.8896 197.978L34.8896 199.437L33.0401 199.437L33.0401 197.978Z" fill="#232222"/>
<path d="M22.9219 197.978L24.7646 197.978L24.7646 199.437L22.9219 199.437L22.9219 197.978Z" fill="#232222"/>
<path d="M34.8896 194.841L34.8896 197.978L33.0469 197.978L33.0469 196.033L24.765 196.033L24.765 197.978L22.9223 197.978L22.9223 194.841L34.8896 194.841Z" fill="#474646"/>
<path d="M31.9098 194.464L26.183 194.464C25.8268 194.464 25.5391 194.752 25.5391 195.108L25.5391 195.855C25.5391 196.211 25.8268 196.498 26.183 196.498L31.9098 196.498C32.266 196.498 32.5537 196.211 32.5537 195.855L32.5537 195.108C32.5537 194.752 32.266 194.464 31.9098 194.464Z" fill="#F36F23"/>
<path d="M14.2637 201.424L14.2637 212.988L43.2676 212.988L43.2676 201.424C43.2676 200.328 42.3771 199.444 41.281 199.444L16.2434 199.444C15.1473 199.444 14.2568 200.328 14.2568 201.424L14.2637 201.424Z" fill="#474646"/>
<path d="M26.3336 212.769L31.2041 212.769L31.2041 214.344L26.3336 214.344L26.3336 212.769Z" fill="#FC971F"/>
<path d="M26.3336 211.193L31.2041 211.193L31.2041 212.775L26.3336 212.775L26.3336 211.193Z" fill="#EA8500"/>
</svg>
