<svg width="1440" height="612" viewBox="0 0 1440 612" fill="none" xmlns="http://www.w3.org/2000/svg">
<mask id="mask0_523_1427" style="mask-type:alpha" maskUnits="userSpaceOnUse" x="0" y="12" width="1440" height="600">
<g style="mix-blend-mode:hard-light">
<rect y="12" width="1440" height="600" fill="#222222"/>
</g>
</mask>
<g mask="url(#mask0_523_1427)">
<g opacity="0.5">
<path d="M-2.67065 442.07C-2.67065 442.07 195.469 488.62 255.329 293.07C298.279 152.76 301.939 76.2505 391.029 37.6805C480.119 -0.889493 532.029 -9.14946 537.319 -50.9095" stroke="#BFBFBF" stroke-miterlimit="10"/>
<path d="M303.28 -50.8896C303.28 -50.8896 355.58 78.9305 217.55 146.77C124.38 192.56 168.07 348.02 107.68 397.51C59.7899 436.75 -2.67016 352.02 -2.67016 352.02" stroke="#BFBFBF" stroke-miterlimit="10"/>
<path d="M262.34 -85.9997C262.34 -85.9997 260.75 14.4303 154.34 80.2703C47.9299 146.11 89.5798 259.84 28.3398 277.14C-32.9002 294.44 -94 220 -94 220" stroke="#BFBFBF" stroke-miterlimit="10"/>
<path d="M187.49 -50.0893C187.49 -50.0893 195.49 32.3807 114.33 43.0207C33.1699 53.6607 -35.9801 -36.4893 -35.9801 -36.4893" stroke="#BFBFBF" stroke-miterlimit="10"/>
</g>
<g opacity="0.5">
<path d="M1465.75 -92C1465.75 -92 1410.7 5.13259 1274.71 -12.1345C1122.22 -31.5004 1056.68 80.6922 1094.46 157.323C1132.24 233.954 1300.02 250.139 1276.58 374.265C1253.13 498.391 1457.11 554.508 1457.11 554.508" stroke="#BFBFBF" stroke-miterlimit="10"/>
<path d="M1506.74 20.2471C1506.74 20.2471 1390.5 62.3437 1274.86 47.2296C1159.21 32.1155 1145.68 100.048 1159.2 127.106C1187.26 183.224 1337.28 194.021 1347 284.684C1354.3 352.844 1300.1 453.276 1456.97 505.207" stroke="#BFBFBF" stroke-miterlimit="10"/>
<path d="M1454.95 65.578C1454.95 65.578 1336.15 50.4315 1357.35 117.39C1381.66 194.14 1438.76 192.939 1384.8 290.082C1365.61 324.627 1359.97 463.846 1465.75 435.792" stroke="#BFBFBF" stroke-miterlimit="10"/>
<path d="M1253.66 143.291C1224.16 143.291 1200.24 130.241 1200.24 114.144C1200.24 98.0473 1224.16 84.9981 1253.66 84.9981C1283.17 84.998 1307.09 98.0473 1307.09 114.144C1307.09 130.241 1283.17 143.291 1253.66 143.291Z" stroke="#BFBFBF" stroke-miterlimit="10"/>
</g>
</g>
</svg>
